<svg xmlns="http://www.w3.org/2000/svg" xmlns:xlink="http://www.w3.org/1999/xlink" version="1.1" x="0" y="0" width="400" height="400"><rect rx="19" id="ofcontainerShape" x="0" y="0" width="400" height="400" stroke="#ffffff" stroke-width="0" fill="#ffffff"/><svg x="0" y="0" width="400" height="400" id="id-og" opacity="1" fill="#8F8F8F" xmlns="http://www.w3.org/2000/svg" xmlns:xlink="http://www.w3.org/1999/xlink" viewBox="0 0 594 593.99902"><defs><symbol id="id-og-New_Symbol" data-name="New Symbol" viewBox="0 0 10.069 14.358"><rect width="10.06864" height="14.35764"/></symbol></defs><g id="id-og-Layer_2" data-name="Layer 2"><g id="id-og-Container"><use width="10.06864" height="14.35764" transform="translate(513.12261 548.62508)" xlink:href="#id-og-New_Symbol"/><use width="10.06864" height="14.35764" transform="translate(468.8497 548.62508)" xlink:href="#id-og-New_Symbol"/><use width="10.06864" height="14.35764" transform="translate(454.09205 548.62508)" xlink:href="#id-og-New_Symbol"/><use width="10.06864" height="14.35764" transform="translate(439.33439 548.62508)" xlink:href="#id-og-New_Symbol"/><use width="10.06864" height="14.35764" transform="translate(424.57673 548.62508)" xlink:href="#id-og-New_Symbol"/><use width="10.06864" height="14.35764" transform="translate(527.87945 548.62508)" xlink:href="#id-og-New_Symbol"/><use width="10.06864" height="14.35764" transform="translate(550.6443 548.62508)" xlink:href="#id-og-New_Symbol"/><use width="10.06864" height="14.35764" transform="translate(158.93911 548.62508)" xlink:href="#id-og-New_Symbol"/><use width="10.06864" height="14.35764" transform="translate(144.18148 548.62508)" xlink:href="#id-og-New_Symbol"/><use width="10.06864" height="14.35764" transform="translate(129.42382 548.62508)" xlink:href="#id-og-New_Symbol"/><use width="10.06864" height="14.35764" transform="translate(114.66618 548.62508)" xlink:href="#id-og-New_Symbol"/><use width="10.06864" height="14.35764" transform="translate(85.15088 548.62508)" xlink:href="#id-og-New_Symbol"/><use width="10.06864" height="14.35764" transform="translate(55.63556 548.62508)" xlink:href="#id-og-New_Symbol"/><use width="10.06864" height="14.35764" transform="translate(550.6443 304.1401)" xlink:href="#id-og-New_Symbol"/><use width="10.06864" height="14.35764" transform="translate(33.28706 245.10954)" xlink:href="#id-og-New_Symbol"/><use width="10.06864" height="14.35764" transform="translate(33.28706 259.86717)" xlink:href="#id-og-New_Symbol"/><use width="10.06864" height="14.35764" transform="translate(33.28706 215.59423)" xlink:href="#id-og-New_Symbol"/><use width="10.06864" height="14.35764" transform="translate(550.6443 141.80601)" xlink:href="#id-og-New_Symbol"/><use width="10.06864" height="14.35764" transform="translate(550.6443 156.56366)" xlink:href="#id-og-New_Symbol"/><use width="10.06864" height="14.35764" transform="translate(550.6443 112.29072)" xlink:href="#id-og-New_Symbol"/><use width="10.06864" height="14.35764" transform="translate(550.6443 82.77542)" xlink:href="#id-og-New_Symbol"/><use width="10.06864" height="14.35764" transform="translate(550.6443 53.26012)" xlink:href="#id-og-New_Symbol"/><use width="10.06864" height="14.35764" transform="translate(550.6443 31.25528)" xlink:href="#id-og-New_Symbol"/><use width="10.06864" height="14.35764" transform="translate(33.28706 525.50482)" xlink:href="#id-og-New_Symbol"/><use width="10.06864" height="14.35764" transform="translate(33.28706 548.62508)" xlink:href="#id-og-New_Symbol"/><use width="10.06864" height="14.35764" transform="translate(33.28706 510.74716)" xlink:href="#id-og-New_Symbol"/><use width="10.06864" height="14.35764" transform="translate(33.28706 481.23191)" xlink:href="#id-og-New_Symbol"/><use width="10.06864" height="14.35764" transform="translate(33.28706 451.7166)" xlink:href="#id-og-New_Symbol"/><use width="10.06864" height="14.35764" transform="translate(33.28706 438.08031)" xlink:href="#id-og-New_Symbol"/><use width="10.06864" height="14.35764" transform="translate(33.28706 407.44369)" xlink:href="#id-og-New_Symbol"/><use width="10.06864" height="14.35764" transform="translate(33.28706 377.92838)" xlink:href="#id-og-New_Symbol"/><use width="10.06864" height="14.35764" transform="translate(33.28706 363.17072)" xlink:href="#id-og-New_Symbol"/><use width="10.06864" height="14.35764" transform="translate(33.28706 348.41306)" xlink:href="#id-og-New_Symbol"/><use width="10.06864" height="14.35764" transform="translate(33.28706 304.14013)" xlink:href="#id-og-New_Symbol"/><use width="10.06864" height="14.35764" transform="translate(33.28706 274.62484)" xlink:href="#id-og-New_Symbol"/><use width="10.06864" height="14.35764" transform="translate(33.28706 186.07897)" xlink:href="#id-og-New_Symbol"/><use width="10.06864" height="14.35764" transform="translate(33.28706 141.80603)" xlink:href="#id-og-New_Symbol"/><use width="10.06864" height="14.35764" transform="translate(33.28706 127.04837)" xlink:href="#id-og-New_Symbol"/><use width="10.06864" height="14.35764" transform="translate(33.28706 97.53309)" xlink:href="#id-og-New_Symbol"/><use width="10.06864" height="14.35764" transform="translate(33.28706 82.77543)" xlink:href="#id-og-New_Symbol"/><use width="10.06864" height="14.35764" transform="translate(33.28706 53.26014)" xlink:href="#id-og-New_Symbol"/><use width="10.06864" height="14.35764" transform="translate(33.28706 31.25528)" xlink:href="#id-og-New_Symbol"/><use width="10.06864" height="14.35764" transform="translate(188.45439 31.25528)" xlink:href="#id-og-New_Symbol"/><use width="10.06864" height="14.35764" transform="translate(173.69674 31.25528)" xlink:href="#id-og-New_Symbol"/><use width="10.06864" height="14.35764" transform="translate(550.6443 495.98896)" xlink:href="#id-og-New_Symbol"/><use width="10.06864" height="14.35764" transform="translate(550.6443 466.47365)" xlink:href="#id-og-New_Symbol"/><use width="10.06864" height="14.35764" transform="translate(550.6443 451.71599)" xlink:href="#id-og-New_Symbol"/><use width="10.06864" height="14.35764" transform="translate(550.6443 436.95833)" xlink:href="#id-og-New_Symbol"/><use width="10.06864" height="14.35764" transform="translate(550.6443 422.20068)" xlink:href="#id-og-New_Symbol"/><use width="10.06864" height="14.35764" transform="translate(550.6443 392.6854)" xlink:href="#id-og-New_Symbol"/><use width="10.06864" height="14.35764" transform="translate(550.6443 363.17011)" xlink:href="#id-og-New_Symbol"/><use width="10.06864" height="14.35764" transform="translate(550.6443 348.41246)" xlink:href="#id-og-New_Symbol"/><use width="10.06864" height="14.35764" transform="translate(550.6443 333.65483)" xlink:href="#id-og-New_Symbol"/><use width="10.06864" height="14.35764" transform="translate(527.88025 31.25528)" xlink:href="#id-og-New_Symbol"/><use width="10.06864" height="14.35764" transform="translate(513.12259 31.25528)" xlink:href="#id-og-New_Symbol"/><use width="10.06864" height="14.35764" transform="translate(498.36499 31.25528)" xlink:href="#id-og-New_Symbol"/><use width="10.06864" height="14.35764" transform="translate(483.60734 31.25528)" xlink:href="#id-og-New_Symbol"/><use width="10.06864" height="14.35764" transform="translate(454.09202 31.25528)" xlink:href="#id-og-New_Symbol"/><use width="10.06864" height="14.35764" transform="translate(424.57671 31.25528)" xlink:href="#id-og-New_Symbol"/><use width="10.06864" height="14.35764" transform="translate(409.81912 31.25528)" xlink:href="#id-og-New_Symbol"/><use width="10.06864" height="14.35764" transform="translate(395.06143 31.25528)" xlink:href="#id-og-New_Symbol"/><use width="10.06864" height="14.35764" transform="translate(380.3038 31.25528)" xlink:href="#id-og-New_Symbol"/><use width="10.06864" height="14.35764" transform="translate(365.54615 31.25528)" xlink:href="#id-og-New_Symbol"/><use width="10.06864" height="14.35764" transform="translate(350.78849 31.25528)" xlink:href="#id-og-New_Symbol"/><use width="10.06864" height="14.35764" transform="translate(306.51555 31.25528)" xlink:href="#id-og-New_Symbol"/><use width="10.06864" height="14.35764" transform="translate(321.27321 31.25528)" xlink:href="#id-og-New_Symbol"/><use width="10.06864" height="14.35764" transform="translate(291.75793 31.25528)" xlink:href="#id-og-New_Symbol"/><use width="10.06864" height="14.35764" transform="translate(277.00027 31.25528)" xlink:href="#id-og-New_Symbol"/><use width="10.06864" height="14.35764" transform="translate(232.72733 31.25528)" xlink:href="#id-og-New_Symbol"/><use width="10.06864" height="14.35764" transform="translate(158.93911 31.25528)" xlink:href="#id-og-New_Symbol"/><use width="10.06864" height="14.35764" transform="translate(129.4238 31.25528)" xlink:href="#id-og-New_Symbol"/><use width="10.06864" height="14.35764" transform="translate(99.90852 31.25528)" xlink:href="#id-og-New_Symbol"/><use width="10.06864" height="14.35764" transform="translate(70.39322 31.25528)" xlink:href="#id-og-New_Symbol"/><use width="10.06864" height="14.35764" transform="translate(55.63556 31.25528)" xlink:href="#id-og-New_Symbol"/><use width="10.06864" height="14.35764" transform="translate(550.6443 274.62424)" xlink:href="#id-og-New_Symbol"/><use width="10.06864" height="14.35764" transform="translate(550.6443 245.10895)" xlink:href="#id-og-New_Symbol"/><use width="10.06864" height="14.35764" transform="translate(550.6443 215.59364)" xlink:href="#id-og-New_Symbol"/><use width="10.06864" height="14.35764" transform="translate(550.6443 200.83601)" xlink:href="#id-og-New_Symbol"/><use width="10.06864" height="14.35764" transform="translate(550.6443 186.07836)" xlink:href="#id-og-New_Symbol"/><use width="10.06864" height="14.35764" transform="translate(550.64351 525.50538)" xlink:href="#id-og-New_Symbol"/><path d="M195.91752,551.43418a4.77938,4.77938,0,0,0-2.28263-.51427h-4.85841V562.682h2.84279v-3.6522h1.92925a5.07894,5.07894,0,0,0,2.332-.50045,3.59252,3.59252,0,0,0,1.5132-1.40955,4.14792,4.14792,0,0,0,.531-2.12814,4.21821,4.21821,0,0,0-.52265-2.12716A3.64453,3.64453,0,0,0,195.91752,551.43418Zm-1.16278,4.50306a1.54254,1.54254,0,0,1-.6574.62877,2.33374,2.33374,0,0,1-1.07691.22407h-1.40116v-3.57817h1.40116a2.3915,2.3915,0,0,1,1.07395.21815,1.50815,1.50815,0,0,1,.66036.61692,1.89966,1.89966,0,0,1,.22406.94464A1.922,1.922,0,0,1,194.75474,555.93724Z"/><path d="M208.09661,556.91346a3.83393,3.83393,0,0,0,.534-2.07681,4.02193,4.02193,0,0,0-.52266-2.08768,3.45715,3.45715,0,0,0-1.48457-1.35526,5.11378,5.11378,0,0,0-2.28262-.4738h-4.85841V562.682h2.84279v-4.0263h1.45564l2.15066,4.0263h3.10141l-2.44013-4.4782A3.38494,3.38494,0,0,0,208.09661,556.91346Zm-5.77146-3.70155h1.40116a2.81482,2.81482,0,0,1,1.07394.18064,1.37011,1.37011,0,0,1,.66036.53993,1.67761,1.67761,0,0,1,.22407.90417,1.62,1.62,0,0,1-.22407.8933,1.33192,1.33192,0,0,1-.65739.51723,2.98721,2.98721,0,0,1-1.07691.16879h-1.40116Z"/><rect x="210.34863" y="550.91991" width="2.84279" height="11.76205"/><polygon points="223.162 550.92 220.532 559.535 220.434 559.535 217.804 550.92 214.622 550.92 218.591 562.682 222.375 562.682 226.344 550.92 223.162 550.92"/><path d="M229.48615,550.91991,225.5176,562.682h3.0555l.77375-2.46967h4.06141l.77541,2.46967h3.05551l-3.96856-11.76205Zm.537,7.13363,1.30634-4.16943h.0918l1.30911,4.16943Z"/><path d="M242.17014,553.6709a2.56,2.56,0,0,1,1.47322-.41852,2.74362,2.74362,0,0,1,.88146.13424,2.04256,2.04256,0,0,1,.69194.38793,1.93369,1.93369,0,0,1,.47084.609,2.497,2.497,0,0,1,.23591.79756h2.87142a5.07107,5.07107,0,0,0-.534-1.87743,4.42881,4.42881,0,0,0-1.12034-1.38685,4.86223,4.86223,0,0,0-1.59611-.86172,6.33787,6.33787,0,0,0-1.97564-.29612,5.74028,5.74028,0,0,0-2.83144.70082,5.07448,5.07448,0,0,0-2.00426,2.05017,6.75457,6.75457,0,0,0-.74081,3.29093,6.82846,6.82846,0,0,0,.729,3.285,5.02189,5.02189,0,0,0,1.98995,2.05313,5.76529,5.76529,0,0,0,2.8576.70379,5.8708,5.8708,0,0,0,2.15036-.3672,4.85045,4.85045,0,0,0,1.59413-.991,4.92506,4.92506,0,0,0,1.03052-1.38092,4.3977,4.3977,0,0,0,.45109-1.53985l-2.87142-.01678a2.34271,2.34271,0,0,1-.2675.761,1.9522,1.9522,0,0,1-.48761.56856,2.122,2.122,0,0,1-.684.35337,2.89219,2.89219,0,0,1-.85827.12043,2.44526,2.44526,0,0,1-2.39762-1.58822,5.81284,5.81284,0,0,1-.00592-3.87922A2.64856,2.64856,0,0,1,242.17014,553.6709Z"/><polygon points="255.756 555.842 255.652 555.842 253.166 550.92 249.989 550.92 254.291 558.753 254.291 562.682 257.117 562.682 257.117 558.753 261.419 550.92 258.242 550.92 255.756 555.842"/><path d="M263.06812,559.87964a1.45434,1.45434,0,0,0-1.06013.43333,1.39479,1.39479,0,0,0-.43333,1.04236,1.41811,1.41811,0,0,0,.43333,1.05716,1.4532,1.4532,0,0,0,1.06013.43629,1.40083,1.40083,0,0,0,.73241-.20137,1.593,1.593,0,0,0,.54487-.53993,1.43939,1.43939,0,0,0,.21617-.75215,1.41751,1.41751,0,0,0-.457-1.04236A1.453,1.453,0,0,0,263.06812,559.87964Z"/><polygon points="266.584 562.682 269.427 562.682 269.427 557.956 274.102 557.956 274.102 555.641 269.427 555.641 269.427 553.229 274.613 553.229 274.613 550.92 266.584 550.92 266.584 562.682"/><polygon points="279.042 550.92 276.199 550.92 276.199 562.682 283.935 562.682 283.935 560.373 279.042 560.373 279.042 550.92"/><path d="M293.44157,551.45984a6.15623,6.15623,0,0,0-5.70532,0A5.08672,5.08672,0,0,0,285.7226,553.51a7.63748,7.63748,0,0,0,0,6.573,5.11915,5.11915,0,0,0,2.01365,2.05313,6.13323,6.13323,0,0,0,5.70532.00592,5.08563,5.08563,0,0,0,2.01858-2.05017,7.62962,7.62962,0,0,0,0-6.58185A5.098,5.098,0,0,0,293.44157,551.45984Zm-.46491,7.28268a2.58142,2.58142,0,0,1-.93082,1.20029,2.54869,2.54869,0,0,1-3.84172-1.20029,5.96367,5.96367,0,0,1,0-3.88218,2.54665,2.54665,0,0,1,4.77254,0,5.98074,5.98074,0,0,1,0,3.88218Z"/><polygon points="308.562 558.645 308.464 558.645 306.436 550.92 303.875 550.92 301.848 558.627 301.75 558.627 299.975 550.92 296.834 550.92 300.257 562.682 302.991 562.682 305.11 555.549 305.202 555.549 307.321 562.682 310.06 562.682 313.477 550.92 310.341 550.92 308.562 558.645"/><path d="M318.16794,553.6709a2.55622,2.55622,0,0,1,1.47273-.41852,2.74357,2.74357,0,0,1,.88146.13424,2.04256,2.04256,0,0,1,.69194.38793,1.93369,1.93369,0,0,1,.47084.609,2.497,2.497,0,0,1,.23591.79756h2.87142a5.07107,5.07107,0,0,0-.534-1.87743,4.42881,4.42881,0,0,0-1.12034-1.38685,4.86228,4.86228,0,0,0-1.5961-.86172,6.33669,6.33669,0,0,0-1.97614-.29612,5.7384,5.7384,0,0,0-2.831.70082,5.085,5.085,0,0,0-2.00476,2.05017,7.72293,7.72293,0,0,0-.01086,6.57593,5.00971,5.00971,0,0,0,1.99,2.05313,5.76147,5.76147,0,0,0,2.85661.70379,5.87165,5.87165,0,0,0,2.15085-.3672,4.85045,4.85045,0,0,0,1.59413-.991,4.92506,4.92506,0,0,0,1.03052-1.38092,4.3977,4.3977,0,0,0,.45109-1.53985l-2.87142-.01678a2.34294,2.34294,0,0,1-.26749.761,1.95239,1.95239,0,0,1-.48762.56856,2.122,2.122,0,0,1-.68405.35337,2.89791,2.89791,0,0,1-.85876.12043,2.44526,2.44526,0,0,1-2.39762-1.58822,5.02058,5.02058,0,0,1-.33561-1.96132,4.96327,4.96327,0,0,1,.33068-1.9179A2.64855,2.64855,0,0,1,318.16794,553.6709Z"/><path d="M334.91081,551.45984a6.15625,6.15625,0,0,0-5.70533,0,5.08672,5.08672,0,0,0-2.01365,2.05017,7.63748,7.63748,0,0,0,0,6.573,5.11915,5.11915,0,0,0,2.01365,2.05313,6.13325,6.13325,0,0,0,5.70533.00592,5.08567,5.08567,0,0,0,2.01857-2.05017,7.62962,7.62962,0,0,0,0-6.58185A5.098,5.098,0,0,0,334.91081,551.45984Zm-.46492,7.28268a2.58142,2.58142,0,0,1-.93082,1.20029,2.54867,2.54867,0,0,1-3.84171-1.20029,5.9635,5.9635,0,0,1,0-3.88218,2.54665,2.54665,0,0,1,4.77253,0,5.98074,5.98074,0,0,1,0,3.88218Z"/><path d="M346.93147,551.6237a6.42425,6.42425,0,0,0-3.09844-.70379h-4.34118V562.682h4.3471a6.42848,6.42848,0,0,0,3.09548-.70379,4.82547,4.82547,0,0,0,2.00773-2.0245,7.41536,7.41536,0,0,0-.003-6.30843A4.85217,4.85217,0,0,0,346.93147,551.6237Zm-.48762,7.20174a2.20662,2.20662,0,0,1-1.03939,1.09664,3.78252,3.78252,0,0,1-1.67409.3366h-1.39573v-6.9145h1.35526a3.87517,3.87517,0,0,1,1.70271.33561,2.21777,2.21777,0,0,1,1.04828,1.09072,4.81542,4.81542,0,0,1,.35634,2.0245A4.88723,4.88723,0,0,1,346.44385,558.82544Z"/><polygon points="351.461 562.682 359.662 562.682 359.662 560.373 354.304 560.373 354.304 557.956 359.242 557.956 359.242 555.641 354.304 555.641 354.304 553.229 359.662 553.229 359.662 550.92 351.461 550.92 351.461 562.682"/><path d="M363.18277,559.87964a1.45434,1.45434,0,0,0-1.06013.43333,1.39479,1.39479,0,0,0-.43333,1.04236,1.41811,1.41811,0,0,0,.43333,1.05716,1.4532,1.4532,0,0,0,1.06013.43629,1.40083,1.40083,0,0,0,.73241-.20137,1.593,1.593,0,0,0,.54487-.53993,1.4393,1.4393,0,0,0,.21617-.75215,1.41747,1.41747,0,0,0-.457-1.04236A1.453,1.453,0,0,0,363.18277,559.87964Z"/><path d="M370.75071,553.6709a2.55622,2.55622,0,0,1,1.47273-.41852,2.74357,2.74357,0,0,1,.88146.13424,2.04271,2.04271,0,0,1,.692.38793,1.93381,1.93381,0,0,1,.47083.609,2.49723,2.49723,0,0,1,.23592.79756H377.375a5.07107,5.07107,0,0,0-.534-1.87743,4.42878,4.42878,0,0,0-1.12033-1.38685,4.86243,4.86243,0,0,0-1.59611-.86172,6.33664,6.33664,0,0,0-1.97614-.29612,5.7384,5.7384,0,0,0-2.83095.70082,5.085,5.085,0,0,0-2.00476,2.05017,7.72289,7.72289,0,0,0-.01085,6.57593,5.00963,5.00963,0,0,0,1.99,2.05313,5.76149,5.76149,0,0,0,2.85661.70379,5.87165,5.87165,0,0,0,2.15085-.3672,4.85034,4.85034,0,0,0,1.59413-.991,4.92506,4.92506,0,0,0,1.03052-1.38092,4.39749,4.39749,0,0,0,.45109-1.53985l-2.87141-.01678a2.34318,2.34318,0,0,1-.2675.761,1.95224,1.95224,0,0,1-.48762.56856,2.122,2.122,0,0,1-.684.35337,2.89791,2.89791,0,0,1-.85876.12043,2.44526,2.44526,0,0,1-2.39762-1.58822,5.02077,5.02077,0,0,1-.3356-1.96132,4.96328,4.96328,0,0,1,.33067-1.9179A2.64855,2.64855,0,0,1,370.75071,553.6709Z"/><path d="M387.4916,551.45984a6.15623,6.15623,0,0,0-5.70532,0,5.08666,5.08666,0,0,0-2.01365,2.05017,7.63748,7.63748,0,0,0,0,6.573,5.11909,5.11909,0,0,0,2.01365,2.05313,6.13323,6.13323,0,0,0,5.70532.00592,5.08575,5.08575,0,0,0,2.01858-2.05017,7.62972,7.62972,0,0,0,0-6.58185A5.09808,5.09808,0,0,0,387.4916,551.45984Zm-.46491,7.28268a2.58142,2.58142,0,0,1-.93082,1.20029,2.54868,2.54868,0,0,1-3.84172-1.20029,5.9635,5.9635,0,0,1,0-3.88218,2.54665,2.54665,0,0,1,4.77254,0,5.98074,5.98074,0,0,1,0,3.88218Z"/><polygon points="401.704 550.92 398.717 558.203 398.579 558.203 395.593 550.92 392.073 550.92 392.073 562.682 394.84 562.682 394.84 555.417 394.938 555.417 397.764 562.607 399.533 562.607 402.358 555.458 402.456 555.458 402.456 562.682 405.224 562.682 405.224 550.92 401.704 550.92"/><path d="M568.52571,593.999H25.47429A25.50339,25.50339,0,0,1,0,568.52474V25.47429A25.5034,25.5034,0,0,1,25.47429,0H568.52571A25.5034,25.5034,0,0,1,594,25.47429V568.52474A25.50339,25.50339,0,0,1,568.52571,593.999ZM25.47429,14.98487A10.50151,10.50151,0,0,0,14.98487,25.47429V568.52474a10.50151,10.50151,0,0,0,10.48942,10.48941H568.52571a10.50151,10.50151,0,0,0,10.48942-10.48941V25.47429a10.50151,10.50151,0,0,0-10.48942-10.48942Z"/></g></g></svg>
<rect x="40.92307692307692" y="40.92307692307692" width="318.15384615384613" height="318.15384615384613" fill="#ffffff" shape-rendering="crispEdges"/><rect x="119.70632478632477" y="40.971282051282046" width="6.363076923076922" height="9.544615384615383" fill="#8F8F8F" shape-rendering="crispEdges"/><rect x="129.34735042735042" y="40.971282051282046" width="6.363076923076922" height="9.544615384615383" fill="#8F8F8F" shape-rendering="crispEdges"/><rect x="148.62940170940172" y="40.971282051282046" width="6.363076923076922" height="9.544615384615383" fill="#8F8F8F" shape-rendering="crispEdges"/><rect x="167.911452991453" y="40.971282051282046" width="6.363076923076922" height="9.544615384615383" fill="#8F8F8F" shape-rendering="crispEdges"/><rect x="177.55247863247862" y="40.971282051282046" width="6.363076923076922" height="9.544615384615383" fill="#8F8F8F" shape-rendering="crispEdges"/><rect x="216.1165811965812" y="40.971282051282046" width="6.363076923076922" height="9.544615384615383" fill="#8F8F8F" shape-rendering="crispEdges"/><rect x="245.0396581196581" y="40.971282051282046" width="6.363076923076922" height="9.544615384615383" fill="#8F8F8F" shape-rendering="crispEdges"/><rect x="254.68068376068376" y="40.971282051282046" width="6.363076923076922" height="9.544615384615383" fill="#8F8F8F" shape-rendering="crispEdges"/><rect x="273.96273504273506" y="40.971282051282046" width="6.363076923076922" height="9.544615384615383" fill="#8F8F8F" shape-rendering="crispEdges"/><rect x="158.27042735042735" y="50.61230769230769" width="6.363076923076922" height="9.544615384615383" fill="#8F8F8F" shape-rendering="crispEdges"/><rect x="177.55247863247862" y="50.61230769230769" width="6.363076923076922" height="9.544615384615383" fill="#8F8F8F" shape-rendering="crispEdges"/><rect x="187.19350427350426" y="50.61230769230769" width="6.363076923076922" height="9.544615384615383" fill="#8F8F8F" shape-rendering="crispEdges"/><rect x="196.83452991452992" y="50.61230769230769" width="6.363076923076922" height="9.544615384615383" fill="#8F8F8F" shape-rendering="crispEdges"/><rect x="206.47555555555556" y="50.61230769230769" width="6.363076923076922" height="9.544615384615383" fill="#8F8F8F" shape-rendering="crispEdges"/><rect x="225.75760683760683" y="50.61230769230769" width="6.363076923076922" height="9.544615384615383" fill="#8F8F8F" shape-rendering="crispEdges"/><rect x="254.68068376068376" y="50.61230769230769" width="6.363076923076922" height="9.544615384615383" fill="#8F8F8F" shape-rendering="crispEdges"/><rect x="273.96273504273506" y="50.61230769230769" width="6.363076923076922" height="9.544615384615383" fill="#8F8F8F" shape-rendering="crispEdges"/><rect x="119.70632478632477" y="60.25333333333333" width="6.363076923076922" height="9.544615384615383" fill="#8F8F8F" shape-rendering="crispEdges"/><rect x="129.34735042735042" y="60.25333333333333" width="6.363076923076922" height="9.544615384615383" fill="#8F8F8F" shape-rendering="crispEdges"/><rect x="158.27042735042735" y="60.25333333333333" width="6.363076923076922" height="9.544615384615383" fill="#8F8F8F" shape-rendering="crispEdges"/><rect x="196.83452991452992" y="60.25333333333333" width="6.363076923076922" height="9.544615384615383" fill="#8F8F8F" shape-rendering="crispEdges"/><rect x="206.47555555555556" y="60.25333333333333" width="6.363076923076922" height="9.544615384615383" fill="#8F8F8F" shape-rendering="crispEdges"/><rect x="245.0396581196581" y="60.25333333333333" width="6.363076923076922" height="9.544615384615383" fill="#8F8F8F" shape-rendering="crispEdges"/><rect x="264.32170940170937" y="60.25333333333333" width="6.363076923076922" height="9.544615384615383" fill="#8F8F8F" shape-rendering="crispEdges"/><rect x="273.96273504273506" y="60.25333333333333" width="6.363076923076922" height="9.544615384615383" fill="#8F8F8F" shape-rendering="crispEdges"/><rect x="129.34735042735042" y="69.89435897435897" width="6.363076923076922" height="9.544615384615383" fill="#8F8F8F" shape-rendering="crispEdges"/><rect x="177.55247863247862" y="69.89435897435897" width="6.363076923076922" height="9.544615384615383" fill="#8F8F8F" shape-rendering="crispEdges"/><rect x="196.83452991452992" y="69.89435897435897" width="6.363076923076922" height="9.544615384615383" fill="#8F8F8F" shape-rendering="crispEdges"/><rect x="216.1165811965812" y="69.89435897435897" width="6.363076923076922" height="9.544615384615383" fill="#8F8F8F" shape-rendering="crispEdges"/><rect x="225.75760683760683" y="69.89435897435897" width="6.363076923076922" height="9.544615384615383" fill="#8F8F8F" shape-rendering="crispEdges"/><rect x="235.39863247863246" y="69.89435897435897" width="6.363076923076922" height="9.544615384615383" fill="#8F8F8F" shape-rendering="crispEdges"/><rect x="245.0396581196581" y="69.89435897435897" width="6.363076923076922" height="9.544615384615383" fill="#8F8F8F" shape-rendering="crispEdges"/><rect x="264.32170940170937" y="69.89435897435897" width="6.363076923076922" height="9.544615384615383" fill="#8F8F8F" shape-rendering="crispEdges"/><rect x="273.96273504273506" y="69.89435897435897" width="6.363076923076922" height="9.544615384615383" fill="#8F8F8F" shape-rendering="crispEdges"/><rect x="119.70632478632477" y="79.53538461538461" width="6.363076923076922" height="9.544615384615383" fill="#8F8F8F" shape-rendering="crispEdges"/><rect x="129.34735042735042" y="79.53538461538461" width="6.363076923076922" height="9.544615384615383" fill="#8F8F8F" shape-rendering="crispEdges"/><rect x="158.27042735042735" y="79.53538461538461" width="6.363076923076922" height="9.544615384615383" fill="#8F8F8F" shape-rendering="crispEdges"/><rect x="187.19350427350426" y="79.53538461538461" width="6.363076923076922" height="9.544615384615383" fill="#8F8F8F" shape-rendering="crispEdges"/><rect x="196.83452991452992" y="79.53538461538461" width="6.363076923076922" height="9.544615384615383" fill="#8F8F8F" shape-rendering="crispEdges"/><rect x="206.47555555555556" y="79.53538461538461" width="6.363076923076922" height="9.544615384615383" fill="#8F8F8F" shape-rendering="crispEdges"/><rect x="225.75760683760683" y="79.53538461538461" width="6.363076923076922" height="9.544615384615383" fill="#8F8F8F" shape-rendering="crispEdges"/><rect x="235.39863247863246" y="79.53538461538461" width="6.363076923076922" height="9.544615384615383" fill="#8F8F8F" shape-rendering="crispEdges"/><rect x="245.0396581196581" y="79.53538461538461" width="6.363076923076922" height="9.544615384615383" fill="#8F8F8F" shape-rendering="crispEdges"/><rect x="273.96273504273506" y="79.53538461538461" width="6.363076923076922" height="9.544615384615383" fill="#8F8F8F" shape-rendering="crispEdges"/><rect x="138.98837606837606" y="89.17641025641025" width="6.363076923076922" height="9.544615384615383" fill="#8F8F8F" shape-rendering="crispEdges"/><rect x="158.27042735042735" y="89.17641025641025" width="6.363076923076922" height="9.544615384615383" fill="#8F8F8F" shape-rendering="crispEdges"/><rect x="225.75760683760683" y="89.17641025641025" width="6.363076923076922" height="9.544615384615383" fill="#8F8F8F" shape-rendering="crispEdges"/><rect x="235.39863247863246" y="89.17641025641025" width="6.363076923076922" height="9.544615384615383" fill="#8F8F8F" shape-rendering="crispEdges"/><rect x="119.70632478632477" y="98.81743589743589" width="6.363076923076922" height="9.544615384615383" fill="#8F8F8F" shape-rendering="crispEdges"/><rect x="138.98837606837606" y="98.81743589743589" width="6.363076923076922" height="9.544615384615383" fill="#8F8F8F" shape-rendering="crispEdges"/><rect x="158.27042735042735" y="98.81743589743589" width="6.363076923076922" height="9.544615384615383" fill="#8F8F8F" shape-rendering="crispEdges"/><rect x="177.55247863247862" y="98.81743589743589" width="6.363076923076922" height="9.544615384615383" fill="#8F8F8F" shape-rendering="crispEdges"/><rect x="196.83452991452992" y="98.81743589743589" width="6.363076923076922" height="9.544615384615383" fill="#8F8F8F" shape-rendering="crispEdges"/><rect x="216.1165811965812" y="98.81743589743589" width="6.363076923076922" height="9.544615384615383" fill="#8F8F8F" shape-rendering="crispEdges"/><rect x="235.39863247863246" y="98.81743589743589" width="6.363076923076922" height="9.544615384615383" fill="#8F8F8F" shape-rendering="crispEdges"/><rect x="254.68068376068376" y="98.81743589743589" width="6.363076923076922" height="9.544615384615383" fill="#8F8F8F" shape-rendering="crispEdges"/><rect x="273.96273504273506" y="98.81743589743589" width="6.363076923076922" height="9.544615384615383" fill="#8F8F8F" shape-rendering="crispEdges"/><rect x="119.70632478632477" y="108.45846153846153" width="6.363076923076922" height="9.544615384615383" fill="#8F8F8F" shape-rendering="crispEdges"/><rect x="138.98837606837606" y="108.45846153846153" width="6.363076923076922" height="9.544615384615383" fill="#8F8F8F" shape-rendering="crispEdges"/><rect x="148.62940170940172" y="108.45846153846153" width="6.363076923076922" height="9.544615384615383" fill="#8F8F8F" shape-rendering="crispEdges"/><rect x="187.19350427350426" y="108.45846153846153" width="6.363076923076922" height="9.544615384615383" fill="#8F8F8F" shape-rendering="crispEdges"/><rect x="196.83452991452992" y="108.45846153846153" width="6.363076923076922" height="9.544615384615383" fill="#8F8F8F" shape-rendering="crispEdges"/><rect x="206.47555555555556" y="108.45846153846153" width="6.363076923076922" height="9.544615384615383" fill="#8F8F8F" shape-rendering="crispEdges"/><rect x="216.1165811965812" y="108.45846153846153" width="6.363076923076922" height="9.544615384615383" fill="#8F8F8F" shape-rendering="crispEdges"/><rect x="254.68068376068376" y="108.45846153846153" width="6.363076923076922" height="9.544615384615383" fill="#8F8F8F" shape-rendering="crispEdges"/><rect x="273.96273504273506" y="108.45846153846153" width="6.363076923076922" height="9.544615384615383" fill="#8F8F8F" shape-rendering="crispEdges"/><rect x="90.78324786324785" y="118.09948717948717" width="6.363076923076922" height="9.544615384615383" fill="#8F8F8F" shape-rendering="crispEdges"/><rect x="100.42427350427349" y="118.09948717948717" width="6.363076923076922" height="9.544615384615383" fill="#8F8F8F" shape-rendering="crispEdges"/><rect x="129.34735042735042" y="118.09948717948717" width="6.363076923076922" height="9.544615384615383" fill="#8F8F8F" shape-rendering="crispEdges"/><rect x="138.98837606837606" y="118.09948717948717" width="6.363076923076922" height="9.544615384615383" fill="#8F8F8F" shape-rendering="crispEdges"/><rect x="148.62940170940172" y="118.09948717948717" width="6.363076923076922" height="9.544615384615383" fill="#8F8F8F" shape-rendering="crispEdges"/><rect x="167.911452991453" y="118.09948717948717" width="6.363076923076922" height="9.544615384615383" fill="#8F8F8F" shape-rendering="crispEdges"/><rect x="177.55247863247862" y="118.09948717948717" width="6.363076923076922" height="9.544615384615383" fill="#8F8F8F" shape-rendering="crispEdges"/><rect x="187.19350427350426" y="118.09948717948717" width="6.363076923076922" height="9.544615384615383" fill="#8F8F8F" shape-rendering="crispEdges"/><rect x="196.83452991452992" y="118.09948717948717" width="6.363076923076922" height="9.544615384615383" fill="#8F8F8F" shape-rendering="crispEdges"/><rect x="216.1165811965812" y="118.09948717948717" width="6.363076923076922" height="9.544615384615383" fill="#8F8F8F" shape-rendering="crispEdges"/><rect x="235.39863247863246" y="118.09948717948717" width="6.363076923076922" height="9.544615384615383" fill="#8F8F8F" shape-rendering="crispEdges"/><rect x="245.0396581196581" y="118.09948717948717" width="6.363076923076922" height="9.544615384615383" fill="#8F8F8F" shape-rendering="crispEdges"/><rect x="254.68068376068376" y="118.09948717948717" width="6.363076923076922" height="9.544615384615383" fill="#8F8F8F" shape-rendering="crispEdges"/><rect x="264.32170940170937" y="118.09948717948717" width="6.363076923076922" height="9.544615384615383" fill="#8F8F8F" shape-rendering="crispEdges"/><rect x="293.24478632478633" y="118.09948717948717" width="6.363076923076922" height="9.544615384615383" fill="#8F8F8F" shape-rendering="crispEdges"/><rect x="312.5268376068376" y="118.09948717948717" width="6.363076923076922" height="9.544615384615383" fill="#8F8F8F" shape-rendering="crispEdges"/><rect x="331.8088888888889" y="118.09948717948717" width="6.363076923076922" height="9.544615384615383" fill="#8F8F8F" shape-rendering="crispEdges"/><rect x="351.09094017094014" y="118.09948717948717" width="6.363076923076922" height="9.544615384615383" fill="#8F8F8F" shape-rendering="crispEdges"/><rect x="42.578119658119654" y="127.7405128205128" width="6.363076923076922" height="9.544615384615383" fill="#8F8F8F" shape-rendering="crispEdges"/><rect x="61.86017094017094" y="127.7405128205128" width="6.363076923076922" height="9.544615384615383" fill="#8F8F8F" shape-rendering="crispEdges"/><rect x="71.50119658119657" y="127.7405128205128" width="6.363076923076922" height="9.544615384615383" fill="#8F8F8F" shape-rendering="crispEdges"/><rect x="81.14222222222222" y="127.7405128205128" width="6.363076923076922" height="9.544615384615383" fill="#8F8F8F" shape-rendering="crispEdges"/><rect x="110.06529914529914" y="127.7405128205128" width="6.363076923076922" height="9.544615384615383" fill="#8F8F8F" shape-rendering="crispEdges"/><rect x="138.98837606837606" y="127.7405128205128" width="6.363076923076922" height="9.544615384615383" fill="#8F8F8F" shape-rendering="crispEdges"/><rect x="148.62940170940172" y="127.7405128205128" width="6.363076923076922" height="9.544615384615383" fill="#8F8F8F" shape-rendering="crispEdges"/><rect x="167.911452991453" y="127.7405128205128" width="6.363076923076922" height="9.544615384615383" fill="#8F8F8F" shape-rendering="crispEdges"/><rect x="177.55247863247862" y="127.7405128205128" width="6.363076923076922" height="9.544615384615383" fill="#8F8F8F" shape-rendering="crispEdges"/><rect x="187.19350427350426" y="127.7405128205128" width="6.363076923076922" height="9.544615384615383" fill="#8F8F8F" shape-rendering="crispEdges"/><rect x="235.39863247863246" y="127.7405128205128" width="6.363076923076922" height="9.544615384615383" fill="#8F8F8F" shape-rendering="crispEdges"/><rect x="245.0396581196581" y="127.7405128205128" width="6.363076923076922" height="9.544615384615383" fill="#8F8F8F" shape-rendering="crispEdges"/><rect x="254.68068376068376" y="127.7405128205128" width="6.363076923076922" height="9.544615384615383" fill="#8F8F8F" shape-rendering="crispEdges"/><rect x="264.32170940170937" y="127.7405128205128" width="6.363076923076922" height="9.544615384615383" fill="#8F8F8F" shape-rendering="crispEdges"/><rect x="273.96273504273506" y="127.7405128205128" width="6.363076923076922" height="9.544615384615383" fill="#8F8F8F" shape-rendering="crispEdges"/><rect x="283.6037606837607" y="127.7405128205128" width="6.363076923076922" height="9.544615384615383" fill="#8F8F8F" shape-rendering="crispEdges"/><rect x="302.88581196581197" y="127.7405128205128" width="6.363076923076922" height="9.544615384615383" fill="#8F8F8F" shape-rendering="crispEdges"/><rect x="312.5268376068376" y="127.7405128205128" width="6.363076923076922" height="9.544615384615383" fill="#8F8F8F" shape-rendering="crispEdges"/><rect x="331.8088888888889" y="127.7405128205128" width="6.363076923076922" height="9.544615384615383" fill="#8F8F8F" shape-rendering="crispEdges"/><rect x="42.578119658119654" y="137.38153846153844" width="6.363076923076922" height="9.544615384615383" fill="#8F8F8F" shape-rendering="crispEdges"/><rect x="52.219145299145296" y="137.38153846153844" width="6.363076923076922" height="9.544615384615383" fill="#8F8F8F" shape-rendering="crispEdges"/><rect x="71.50119658119657" y="137.38153846153844" width="6.363076923076922" height="9.544615384615383" fill="#8F8F8F" shape-rendering="crispEdges"/><rect x="90.78324786324785" y="137.38153846153844" width="6.363076923076922" height="9.544615384615383" fill="#8F8F8F" shape-rendering="crispEdges"/><rect x="100.42427350427349" y="137.38153846153844" width="6.363076923076922" height="9.544615384615383" fill="#8F8F8F" shape-rendering="crispEdges"/><rect x="110.06529914529914" y="137.38153846153844" width="6.363076923076922" height="9.544615384615383" fill="#8F8F8F" shape-rendering="crispEdges"/><rect x="119.70632478632477" y="137.38153846153844" width="6.363076923076922" height="9.544615384615383" fill="#8F8F8F" shape-rendering="crispEdges"/><rect x="138.98837606837606" y="137.38153846153844" width="6.363076923076922" height="9.544615384615383" fill="#8F8F8F" shape-rendering="crispEdges"/><rect x="206.47555555555556" y="137.38153846153844" width="6.363076923076922" height="9.544615384615383" fill="#8F8F8F" shape-rendering="crispEdges"/><rect x="216.1165811965812" y="137.38153846153844" width="6.363076923076922" height="9.544615384615383" fill="#8F8F8F" shape-rendering="crispEdges"/><rect x="225.75760683760683" y="137.38153846153844" width="6.363076923076922" height="9.544615384615383" fill="#8F8F8F" shape-rendering="crispEdges"/><rect x="235.39863247863246" y="137.38153846153844" width="6.363076923076922" height="9.544615384615383" fill="#8F8F8F" shape-rendering="crispEdges"/><rect x="254.68068376068376" y="137.38153846153844" width="6.363076923076922" height="9.544615384615383" fill="#8F8F8F" shape-rendering="crispEdges"/><rect x="283.6037606837607" y="137.38153846153844" width="6.363076923076922" height="9.544615384615383" fill="#8F8F8F" shape-rendering="crispEdges"/><rect x="302.88581196581197" y="137.38153846153844" width="6.363076923076922" height="9.544615384615383" fill="#8F8F8F" shape-rendering="crispEdges"/><rect x="322.16786324786324" y="137.38153846153844" width="6.363076923076922" height="9.544615384615383" fill="#8F8F8F" shape-rendering="crispEdges"/><rect x="341.4499145299145" y="137.38153846153844" width="6.363076923076922" height="9.544615384615383" fill="#8F8F8F" shape-rendering="crispEdges"/><rect x="61.86017094017094" y="147.0225641025641" width="6.363076923076922" height="9.544615384615383" fill="#8F8F8F" shape-rendering="crispEdges"/><rect x="81.14222222222222" y="147.0225641025641" width="6.363076923076922" height="9.544615384615383" fill="#8F8F8F" shape-rendering="crispEdges"/><rect x="138.98837606837606" y="147.0225641025641" width="6.363076923076922" height="9.544615384615383" fill="#8F8F8F" shape-rendering="crispEdges"/><rect x="148.62940170940172" y="147.0225641025641" width="6.363076923076922" height="9.544615384615383" fill="#8F8F8F" shape-rendering="crispEdges"/><rect x="167.911452991453" y="147.0225641025641" width="6.363076923076922" height="9.544615384615383" fill="#8F8F8F" shape-rendering="crispEdges"/><rect x="177.55247863247862" y="147.0225641025641" width="6.363076923076922" height="9.544615384615383" fill="#8F8F8F" shape-rendering="crispEdges"/><rect x="187.19350427350426" y="147.0225641025641" width="6.363076923076922" height="9.544615384615383" fill="#8F8F8F" shape-rendering="crispEdges"/><rect x="225.75760683760683" y="147.0225641025641" width="6.363076923076922" height="9.544615384615383" fill="#8F8F8F" shape-rendering="crispEdges"/><rect x="235.39863247863246" y="147.0225641025641" width="6.363076923076922" height="9.544615384615383" fill="#8F8F8F" shape-rendering="crispEdges"/><rect x="245.0396581196581" y="147.0225641025641" width="6.363076923076922" height="9.544615384615383" fill="#8F8F8F" shape-rendering="crispEdges"/><rect x="264.32170940170937" y="147.0225641025641" width="6.363076923076922" height="9.544615384615383" fill="#8F8F8F" shape-rendering="crispEdges"/><rect x="283.6037606837607" y="147.0225641025641" width="6.363076923076922" height="9.544615384615383" fill="#8F8F8F" shape-rendering="crispEdges"/><rect x="293.24478632478633" y="147.0225641025641" width="6.363076923076922" height="9.544615384615383" fill="#8F8F8F" shape-rendering="crispEdges"/><rect x="302.88581196581197" y="147.0225641025641" width="6.363076923076922" height="9.544615384615383" fill="#8F8F8F" shape-rendering="crispEdges"/><rect x="322.16786324786324" y="147.0225641025641" width="6.363076923076922" height="9.544615384615383" fill="#8F8F8F" shape-rendering="crispEdges"/><rect x="331.8088888888889" y="147.0225641025641" width="6.363076923076922" height="9.544615384615383" fill="#8F8F8F" shape-rendering="crispEdges"/><rect x="351.09094017094014" y="147.0225641025641" width="6.363076923076922" height="9.544615384615383" fill="#8F8F8F" shape-rendering="crispEdges"/><rect x="42.578119658119654" y="156.66358974358974" width="6.363076923076922" height="9.544615384615383" fill="#8F8F8F" shape-rendering="crispEdges"/><rect x="61.86017094017094" y="156.66358974358974" width="6.363076923076922" height="9.544615384615383" fill="#8F8F8F" shape-rendering="crispEdges"/><rect x="71.50119658119657" y="156.66358974358974" width="6.363076923076922" height="9.544615384615383" fill="#8F8F8F" shape-rendering="crispEdges"/><rect x="81.14222222222222" y="156.66358974358974" width="6.363076923076922" height="9.544615384615383" fill="#8F8F8F" shape-rendering="crispEdges"/><rect x="90.78324786324785" y="156.66358974358974" width="6.363076923076922" height="9.544615384615383" fill="#8F8F8F" shape-rendering="crispEdges"/><rect x="100.42427350427349" y="156.66358974358974" width="6.363076923076922" height="9.544615384615383" fill="#8F8F8F" shape-rendering="crispEdges"/><rect x="110.06529914529914" y="156.66358974358974" width="6.363076923076922" height="9.544615384615383" fill="#8F8F8F" shape-rendering="crispEdges"/><rect x="138.98837606837606" y="156.66358974358974" width="6.363076923076922" height="9.544615384615383" fill="#8F8F8F" shape-rendering="crispEdges"/><rect x="148.62940170940172" y="156.66358974358974" width="6.363076923076922" height="9.544615384615383" fill="#8F8F8F" shape-rendering="crispEdges"/><rect x="158.27042735042735" y="156.66358974358974" width="6.363076923076922" height="9.544615384615383" fill="#8F8F8F" shape-rendering="crispEdges"/><rect x="187.19350427350426" y="156.66358974358974" width="6.363076923076922" height="9.544615384615383" fill="#8F8F8F" shape-rendering="crispEdges"/><rect x="196.83452991452992" y="156.66358974358974" width="6.363076923076922" height="9.544615384615383" fill="#8F8F8F" shape-rendering="crispEdges"/><rect x="206.47555555555556" y="156.66358974358974" width="6.363076923076922" height="9.544615384615383" fill="#8F8F8F" shape-rendering="crispEdges"/><rect x="225.75760683760683" y="156.66358974358974" width="6.363076923076922" height="9.544615384615383" fill="#8F8F8F" shape-rendering="crispEdges"/><rect x="245.0396581196581" y="156.66358974358974" width="6.363076923076922" height="9.544615384615383" fill="#8F8F8F" shape-rendering="crispEdges"/><rect x="273.96273504273506" y="156.66358974358974" width="6.363076923076922" height="9.544615384615383" fill="#8F8F8F" shape-rendering="crispEdges"/><rect x="293.24478632478633" y="156.66358974358974" width="6.363076923076922" height="9.544615384615383" fill="#8F8F8F" shape-rendering="crispEdges"/><rect x="302.88581196581197" y="156.66358974358974" width="6.363076923076922" height="9.544615384615383" fill="#8F8F8F" shape-rendering="crispEdges"/><rect x="312.5268376068376" y="156.66358974358974" width="6.363076923076922" height="9.544615384615383" fill="#8F8F8F" shape-rendering="crispEdges"/><rect x="322.16786324786324" y="156.66358974358974" width="6.363076923076922" height="9.544615384615383" fill="#8F8F8F" shape-rendering="crispEdges"/><rect x="351.09094017094014" y="156.66358974358974" width="6.363076923076922" height="9.544615384615383" fill="#8F8F8F" shape-rendering="crispEdges"/><rect x="81.14222222222222" y="166.30461538461537" width="6.363076923076922" height="9.544615384615383" fill="#8F8F8F" shape-rendering="crispEdges"/><rect x="110.06529914529914" y="166.30461538461537" width="6.363076923076922" height="9.544615384615383" fill="#8F8F8F" shape-rendering="crispEdges"/><rect x="119.70632478632477" y="166.30461538461537" width="6.363076923076922" height="9.544615384615383" fill="#8F8F8F" shape-rendering="crispEdges"/><rect x="129.34735042735042" y="166.30461538461537" width="6.363076923076922" height="9.544615384615383" fill="#8F8F8F" shape-rendering="crispEdges"/><rect x="138.98837606837606" y="166.30461538461537" width="6.363076923076922" height="9.544615384615383" fill="#8F8F8F" shape-rendering="crispEdges"/><rect x="148.62940170940172" y="166.30461538461537" width="6.363076923076922" height="9.544615384615383" fill="#8F8F8F" shape-rendering="crispEdges"/><rect x="158.27042735042735" y="166.30461538461537" width="6.363076923076922" height="9.544615384615383" fill="#8F8F8F" shape-rendering="crispEdges"/><rect x="177.55247863247862" y="166.30461538461537" width="6.363076923076922" height="9.544615384615383" fill="#8F8F8F" shape-rendering="crispEdges"/><rect x="187.19350427350426" y="166.30461538461537" width="6.363076923076922" height="9.544615384615383" fill="#8F8F8F" shape-rendering="crispEdges"/><rect x="196.83452991452992" y="166.30461538461537" width="6.363076923076922" height="9.544615384615383" fill="#8F8F8F" shape-rendering="crispEdges"/><rect x="206.47555555555556" y="166.30461538461537" width="6.363076923076922" height="9.544615384615383" fill="#8F8F8F" shape-rendering="crispEdges"/><rect x="225.75760683760683" y="166.30461538461537" width="6.363076923076922" height="9.544615384615383" fill="#8F8F8F" shape-rendering="crispEdges"/><rect x="245.0396581196581" y="166.30461538461537" width="6.363076923076922" height="9.544615384615383" fill="#8F8F8F" shape-rendering="crispEdges"/><rect x="264.32170940170937" y="166.30461538461537" width="6.363076923076922" height="9.544615384615383" fill="#8F8F8F" shape-rendering="crispEdges"/><rect x="293.24478632478633" y="166.30461538461537" width="6.363076923076922" height="9.544615384615383" fill="#8F8F8F" shape-rendering="crispEdges"/><rect x="302.88581196581197" y="166.30461538461537" width="6.363076923076922" height="9.544615384615383" fill="#8F8F8F" shape-rendering="crispEdges"/><rect x="322.16786324786324" y="166.30461538461537" width="6.363076923076922" height="9.544615384615383" fill="#8F8F8F" shape-rendering="crispEdges"/><rect x="331.8088888888889" y="166.30461538461537" width="6.363076923076922" height="9.544615384615383" fill="#8F8F8F" shape-rendering="crispEdges"/><rect x="351.09094017094014" y="166.30461538461537" width="6.363076923076922" height="9.544615384615383" fill="#8F8F8F" shape-rendering="crispEdges"/><rect x="42.578119658119654" y="175.945641025641" width="6.363076923076922" height="9.544615384615383" fill="#8F8F8F" shape-rendering="crispEdges"/><rect x="52.219145299145296" y="175.945641025641" width="6.363076923076922" height="9.544615384615383" fill="#8F8F8F" shape-rendering="crispEdges"/><rect x="71.50119658119657" y="175.945641025641" width="6.363076923076922" height="9.544615384615383" fill="#8F8F8F" shape-rendering="crispEdges"/><rect x="90.78324786324785" y="175.945641025641" width="6.363076923076922" height="9.544615384615383" fill="#8F8F8F" shape-rendering="crispEdges"/><rect x="100.42427350427349" y="175.945641025641" width="6.363076923076922" height="9.544615384615383" fill="#8F8F8F" shape-rendering="crispEdges"/><rect x="177.55247863247862" y="175.945641025641" width="6.363076923076922" height="9.544615384615383" fill="#8F8F8F" shape-rendering="crispEdges"/><rect x="196.83452991452992" y="175.945641025641" width="6.363076923076922" height="9.544615384615383" fill="#8F8F8F" shape-rendering="crispEdges"/><rect x="225.75760683760683" y="175.945641025641" width="6.363076923076922" height="9.544615384615383" fill="#8F8F8F" shape-rendering="crispEdges"/><rect x="254.68068376068376" y="175.945641025641" width="6.363076923076922" height="9.544615384615383" fill="#8F8F8F" shape-rendering="crispEdges"/><rect x="283.6037606837607" y="175.945641025641" width="6.363076923076922" height="9.544615384615383" fill="#8F8F8F" shape-rendering="crispEdges"/><rect x="293.24478632478633" y="175.945641025641" width="6.363076923076922" height="9.544615384615383" fill="#8F8F8F" shape-rendering="crispEdges"/><rect x="312.5268376068376" y="175.945641025641" width="6.363076923076922" height="9.544615384615383" fill="#8F8F8F" shape-rendering="crispEdges"/><rect x="322.16786324786324" y="175.945641025641" width="6.363076923076922" height="9.544615384615383" fill="#8F8F8F" shape-rendering="crispEdges"/><rect x="331.8088888888889" y="175.945641025641" width="6.363076923076922" height="9.544615384615383" fill="#8F8F8F" shape-rendering="crispEdges"/><rect x="341.4499145299145" y="175.945641025641" width="6.363076923076922" height="9.544615384615383" fill="#8F8F8F" shape-rendering="crispEdges"/><rect x="52.219145299145296" y="185.58666666666664" width="6.363076923076922" height="9.544615384615383" fill="#8F8F8F" shape-rendering="crispEdges"/><rect x="61.86017094017094" y="185.58666666666664" width="6.363076923076922" height="9.544615384615383" fill="#8F8F8F" shape-rendering="crispEdges"/><rect x="71.50119658119657" y="185.58666666666664" width="6.363076923076922" height="9.544615384615383" fill="#8F8F8F" shape-rendering="crispEdges"/><rect x="129.34735042735042" y="185.58666666666664" width="6.363076923076922" height="9.544615384615383" fill="#8F8F8F" shape-rendering="crispEdges"/><rect x="148.62940170940172" y="185.58666666666664" width="6.363076923076922" height="9.544615384615383" fill="#8F8F8F" shape-rendering="crispEdges"/><rect x="167.911452991453" y="185.58666666666664" width="6.363076923076922" height="9.544615384615383" fill="#8F8F8F" shape-rendering="crispEdges"/><rect x="187.19350427350426" y="185.58666666666664" width="6.363076923076922" height="9.544615384615383" fill="#8F8F8F" shape-rendering="crispEdges"/><rect x="196.83452991452992" y="185.58666666666664" width="6.363076923076922" height="9.544615384615383" fill="#8F8F8F" shape-rendering="crispEdges"/><rect x="216.1165811965812" y="185.58666666666664" width="6.363076923076922" height="9.544615384615383" fill="#8F8F8F" shape-rendering="crispEdges"/><rect x="264.32170940170937" y="185.58666666666664" width="6.363076923076922" height="9.544615384615383" fill="#8F8F8F" shape-rendering="crispEdges"/><rect x="283.6037606837607" y="185.58666666666664" width="6.363076923076922" height="9.544615384615383" fill="#8F8F8F" shape-rendering="crispEdges"/><rect x="302.88581196581197" y="185.58666666666664" width="6.363076923076922" height="9.544615384615383" fill="#8F8F8F" shape-rendering="crispEdges"/><rect x="331.8088888888889" y="185.58666666666664" width="6.363076923076922" height="9.544615384615383" fill="#8F8F8F" shape-rendering="crispEdges"/><rect x="351.09094017094014" y="185.58666666666664" width="6.363076923076922" height="9.544615384615383" fill="#8F8F8F" shape-rendering="crispEdges"/><rect x="42.578119658119654" y="195.2276923076923" width="6.363076923076922" height="9.544615384615383" fill="#8F8F8F" shape-rendering="crispEdges"/><rect x="52.219145299145296" y="195.2276923076923" width="6.363076923076922" height="9.544615384615383" fill="#8F8F8F" shape-rendering="crispEdges"/><rect x="61.86017094017094" y="195.2276923076923" width="6.363076923076922" height="9.544615384615383" fill="#8F8F8F" shape-rendering="crispEdges"/><rect x="90.78324786324785" y="195.2276923076923" width="6.363076923076922" height="9.544615384615383" fill="#8F8F8F" shape-rendering="crispEdges"/><rect x="100.42427350427349" y="195.2276923076923" width="6.363076923076922" height="9.544615384615383" fill="#8F8F8F" shape-rendering="crispEdges"/><rect x="110.06529914529914" y="195.2276923076923" width="6.363076923076922" height="9.544615384615383" fill="#8F8F8F" shape-rendering="crispEdges"/><rect x="177.55247863247862" y="195.2276923076923" width="6.363076923076922" height="9.544615384615383" fill="#8F8F8F" shape-rendering="crispEdges"/><rect x="235.39863247863246" y="195.2276923076923" width="6.363076923076922" height="9.544615384615383" fill="#8F8F8F" shape-rendering="crispEdges"/><rect x="264.32170940170937" y="195.2276923076923" width="6.363076923076922" height="9.544615384615383" fill="#8F8F8F" shape-rendering="crispEdges"/><rect x="283.6037606837607" y="195.2276923076923" width="6.363076923076922" height="9.544615384615383" fill="#8F8F8F" shape-rendering="crispEdges"/><rect x="302.88581196581197" y="195.2276923076923" width="6.363076923076922" height="9.544615384615383" fill="#8F8F8F" shape-rendering="crispEdges"/><rect x="312.5268376068376" y="195.2276923076923" width="6.363076923076922" height="9.544615384615383" fill="#8F8F8F" shape-rendering="crispEdges"/><rect x="322.16786324786324" y="195.2276923076923" width="6.363076923076922" height="9.544615384615383" fill="#8F8F8F" shape-rendering="crispEdges"/><rect x="119.70632478632477" y="204.86871794871794" width="6.363076923076922" height="9.544615384615383" fill="#8F8F8F" shape-rendering="crispEdges"/><rect x="129.34735042735042" y="204.86871794871794" width="6.363076923076922" height="9.544615384615383" fill="#8F8F8F" shape-rendering="crispEdges"/><rect x="138.98837606837606" y="204.86871794871794" width="6.363076923076922" height="9.544615384615383" fill="#8F8F8F" shape-rendering="crispEdges"/><rect x="148.62940170940172" y="204.86871794871794" width="6.363076923076922" height="9.544615384615383" fill="#8F8F8F" shape-rendering="crispEdges"/><rect x="264.32170940170937" y="204.86871794871794" width="6.363076923076922" height="9.544615384615383" fill="#8F8F8F" shape-rendering="crispEdges"/><rect x="273.96273504273506" y="204.86871794871794" width="6.363076923076922" height="9.544615384615383" fill="#8F8F8F" shape-rendering="crispEdges"/><rect x="283.6037606837607" y="204.86871794871794" width="6.363076923076922" height="9.544615384615383" fill="#8F8F8F" shape-rendering="crispEdges"/><rect x="293.24478632478633" y="204.86871794871794" width="6.363076923076922" height="9.544615384615383" fill="#8F8F8F" shape-rendering="crispEdges"/><rect x="341.4499145299145" y="204.86871794871794" width="6.363076923076922" height="9.544615384615383" fill="#8F8F8F" shape-rendering="crispEdges"/><rect x="351.09094017094014" y="204.86871794871794" width="6.363076923076922" height="9.544615384615383" fill="#8F8F8F" shape-rendering="crispEdges"/><rect x="42.578119658119654" y="214.50974358974358" width="6.363076923076922" height="9.544615384615383" fill="#8F8F8F" shape-rendering="crispEdges"/><rect x="61.86017094017094" y="214.50974358974358" width="6.363076923076922" height="9.544615384615383" fill="#8F8F8F" shape-rendering="crispEdges"/><rect x="71.50119658119657" y="214.50974358974358" width="6.363076923076922" height="9.544615384615383" fill="#8F8F8F" shape-rendering="crispEdges"/><rect x="100.42427350427349" y="214.50974358974358" width="6.363076923076922" height="9.544615384615383" fill="#8F8F8F" shape-rendering="crispEdges"/><rect x="110.06529914529914" y="214.50974358974358" width="6.363076923076922" height="9.544615384615383" fill="#8F8F8F" shape-rendering="crispEdges"/><rect x="119.70632478632477" y="214.50974358974358" width="6.363076923076922" height="9.544615384615383" fill="#8F8F8F" shape-rendering="crispEdges"/><rect x="129.34735042735042" y="214.50974358974358" width="6.363076923076922" height="9.544615384615383" fill="#8F8F8F" shape-rendering="crispEdges"/><rect x="148.62940170940172" y="214.50974358974358" width="6.363076923076922" height="9.544615384615383" fill="#8F8F8F" shape-rendering="crispEdges"/><rect x="158.27042735042735" y="214.50974358974358" width="6.363076923076922" height="9.544615384615383" fill="#8F8F8F" shape-rendering="crispEdges"/><rect x="167.911452991453" y="214.50974358974358" width="6.363076923076922" height="9.544615384615383" fill="#8F8F8F" shape-rendering="crispEdges"/><rect x="206.47555555555556" y="214.50974358974358" width="6.363076923076922" height="9.544615384615383" fill="#8F8F8F" shape-rendering="crispEdges"/><rect x="216.1165811965812" y="214.50974358974358" width="6.363076923076922" height="9.544615384615383" fill="#8F8F8F" shape-rendering="crispEdges"/><rect x="225.75760683760683" y="214.50974358974358" width="6.363076923076922" height="9.544615384615383" fill="#8F8F8F" shape-rendering="crispEdges"/><rect x="235.39863247863246" y="214.50974358974358" width="6.363076923076922" height="9.544615384615383" fill="#8F8F8F" shape-rendering="crispEdges"/><rect x="245.0396581196581" y="214.50974358974358" width="6.363076923076922" height="9.544615384615383" fill="#8F8F8F" shape-rendering="crispEdges"/><rect x="264.32170940170937" y="214.50974358974358" width="6.363076923076922" height="9.544615384615383" fill="#8F8F8F" shape-rendering="crispEdges"/><rect x="283.6037606837607" y="214.50974358974358" width="6.363076923076922" height="9.544615384615383" fill="#8F8F8F" shape-rendering="crispEdges"/><rect x="312.5268376068376" y="214.50974358974358" width="6.363076923076922" height="9.544615384615383" fill="#8F8F8F" shape-rendering="crispEdges"/><rect x="322.16786324786324" y="214.50974358974358" width="6.363076923076922" height="9.544615384615383" fill="#8F8F8F" shape-rendering="crispEdges"/><rect x="331.8088888888889" y="214.50974358974358" width="6.363076923076922" height="9.544615384615383" fill="#8F8F8F" shape-rendering="crispEdges"/><rect x="341.4499145299145" y="214.50974358974358" width="6.363076923076922" height="9.544615384615383" fill="#8F8F8F" shape-rendering="crispEdges"/><rect x="351.09094017094014" y="214.50974358974358" width="6.363076923076922" height="9.544615384615383" fill="#8F8F8F" shape-rendering="crispEdges"/><rect x="52.219145299145296" y="224.1507692307692" width="6.363076923076922" height="9.544615384615383" fill="#8F8F8F" shape-rendering="crispEdges"/><rect x="71.50119658119657" y="224.1507692307692" width="6.363076923076922" height="9.544615384615383" fill="#8F8F8F" shape-rendering="crispEdges"/><rect x="81.14222222222222" y="224.1507692307692" width="6.363076923076922" height="9.544615384615383" fill="#8F8F8F" shape-rendering="crispEdges"/><rect x="90.78324786324785" y="224.1507692307692" width="6.363076923076922" height="9.544615384615383" fill="#8F8F8F" shape-rendering="crispEdges"/><rect x="110.06529914529914" y="224.1507692307692" width="6.363076923076922" height="9.544615384615383" fill="#8F8F8F" shape-rendering="crispEdges"/><rect x="158.27042735042735" y="224.1507692307692" width="6.363076923076922" height="9.544615384615383" fill="#8F8F8F" shape-rendering="crispEdges"/><rect x="177.55247863247862" y="224.1507692307692" width="6.363076923076922" height="9.544615384615383" fill="#8F8F8F" shape-rendering="crispEdges"/><rect x="187.19350427350426" y="224.1507692307692" width="6.363076923076922" height="9.544615384615383" fill="#8F8F8F" shape-rendering="crispEdges"/><rect x="206.47555555555556" y="224.1507692307692" width="6.363076923076922" height="9.544615384615383" fill="#8F8F8F" shape-rendering="crispEdges"/><rect x="225.75760683760683" y="224.1507692307692" width="6.363076923076922" height="9.544615384615383" fill="#8F8F8F" shape-rendering="crispEdges"/><rect x="254.68068376068376" y="224.1507692307692" width="6.363076923076922" height="9.544615384615383" fill="#8F8F8F" shape-rendering="crispEdges"/><rect x="264.32170940170937" y="224.1507692307692" width="6.363076923076922" height="9.544615384615383" fill="#8F8F8F" shape-rendering="crispEdges"/><rect x="273.96273504273506" y="224.1507692307692" width="6.363076923076922" height="9.544615384615383" fill="#8F8F8F" shape-rendering="crispEdges"/><rect x="283.6037606837607" y="224.1507692307692" width="6.363076923076922" height="9.544615384615383" fill="#8F8F8F" shape-rendering="crispEdges"/><rect x="302.88581196581197" y="224.1507692307692" width="6.363076923076922" height="9.544615384615383" fill="#8F8F8F" shape-rendering="crispEdges"/><rect x="312.5268376068376" y="224.1507692307692" width="6.363076923076922" height="9.544615384615383" fill="#8F8F8F" shape-rendering="crispEdges"/><rect x="322.16786324786324" y="224.1507692307692" width="6.363076923076922" height="9.544615384615383" fill="#8F8F8F" shape-rendering="crispEdges"/><rect x="331.8088888888889" y="224.1507692307692" width="6.363076923076922" height="9.544615384615383" fill="#8F8F8F" shape-rendering="crispEdges"/><rect x="341.4499145299145" y="224.1507692307692" width="6.363076923076922" height="9.544615384615383" fill="#8F8F8F" shape-rendering="crispEdges"/><rect x="351.09094017094014" y="224.1507692307692" width="6.363076923076922" height="9.544615384615383" fill="#8F8F8F" shape-rendering="crispEdges"/><rect x="42.578119658119654" y="233.79179487179485" width="6.363076923076922" height="9.544615384615383" fill="#8F8F8F" shape-rendering="crispEdges"/><rect x="52.219145299145296" y="233.79179487179485" width="6.363076923076922" height="9.544615384615383" fill="#8F8F8F" shape-rendering="crispEdges"/><rect x="61.86017094017094" y="233.79179487179485" width="6.363076923076922" height="9.544615384615383" fill="#8F8F8F" shape-rendering="crispEdges"/><rect x="71.50119658119657" y="233.79179487179485" width="6.363076923076922" height="9.544615384615383" fill="#8F8F8F" shape-rendering="crispEdges"/><rect x="100.42427350427349" y="233.79179487179485" width="6.363076923076922" height="9.544615384615383" fill="#8F8F8F" shape-rendering="crispEdges"/><rect x="110.06529914529914" y="233.79179487179485" width="6.363076923076922" height="9.544615384615383" fill="#8F8F8F" shape-rendering="crispEdges"/><rect x="119.70632478632477" y="233.79179487179485" width="6.363076923076922" height="9.544615384615383" fill="#8F8F8F" shape-rendering="crispEdges"/><rect x="138.98837606837606" y="233.79179487179485" width="6.363076923076922" height="9.544615384615383" fill="#8F8F8F" shape-rendering="crispEdges"/><rect x="196.83452991452992" y="233.79179487179485" width="6.363076923076922" height="9.544615384615383" fill="#8F8F8F" shape-rendering="crispEdges"/><rect x="206.47555555555556" y="233.79179487179485" width="6.363076923076922" height="9.544615384615383" fill="#8F8F8F" shape-rendering="crispEdges"/><rect x="235.39863247863246" y="233.79179487179485" width="6.363076923076922" height="9.544615384615383" fill="#8F8F8F" shape-rendering="crispEdges"/><rect x="273.96273504273506" y="233.79179487179485" width="6.363076923076922" height="9.544615384615383" fill="#8F8F8F" shape-rendering="crispEdges"/><rect x="283.6037606837607" y="233.79179487179485" width="6.363076923076922" height="9.544615384615383" fill="#8F8F8F" shape-rendering="crispEdges"/><rect x="312.5268376068376" y="233.79179487179485" width="6.363076923076922" height="9.544615384615383" fill="#8F8F8F" shape-rendering="crispEdges"/><rect x="322.16786324786324" y="233.79179487179485" width="6.363076923076922" height="9.544615384615383" fill="#8F8F8F" shape-rendering="crispEdges"/><rect x="341.4499145299145" y="233.79179487179485" width="6.363076923076922" height="9.544615384615383" fill="#8F8F8F" shape-rendering="crispEdges"/><rect x="42.578119658119654" y="243.43282051282048" width="6.363076923076922" height="9.544615384615383" fill="#8F8F8F" shape-rendering="crispEdges"/><rect x="52.219145299145296" y="243.43282051282048" width="6.363076923076922" height="9.544615384615383" fill="#8F8F8F" shape-rendering="crispEdges"/><rect x="90.78324786324785" y="243.43282051282048" width="6.363076923076922" height="9.544615384615383" fill="#8F8F8F" shape-rendering="crispEdges"/><rect x="129.34735042735042" y="243.43282051282048" width="6.363076923076922" height="9.544615384615383" fill="#8F8F8F" shape-rendering="crispEdges"/><rect x="148.62940170940172" y="243.43282051282048" width="6.363076923076922" height="9.544615384615383" fill="#8F8F8F" shape-rendering="crispEdges"/><rect x="167.911452991453" y="243.43282051282048" width="6.363076923076922" height="9.544615384615383" fill="#8F8F8F" shape-rendering="crispEdges"/><rect x="196.83452991452992" y="243.43282051282048" width="6.363076923076922" height="9.544615384615383" fill="#8F8F8F" shape-rendering="crispEdges"/><rect x="216.1165811965812" y="243.43282051282048" width="6.363076923076922" height="9.544615384615383" fill="#8F8F8F" shape-rendering="crispEdges"/><rect x="254.68068376068376" y="243.43282051282048" width="6.363076923076922" height="9.544615384615383" fill="#8F8F8F" shape-rendering="crispEdges"/><rect x="264.32170940170937" y="243.43282051282048" width="6.363076923076922" height="9.544615384615383" fill="#8F8F8F" shape-rendering="crispEdges"/><rect x="293.24478632478633" y="243.43282051282048" width="6.363076923076922" height="9.544615384615383" fill="#8F8F8F" shape-rendering="crispEdges"/><rect x="302.88581196581197" y="243.43282051282048" width="6.363076923076922" height="9.544615384615383" fill="#8F8F8F" shape-rendering="crispEdges"/><rect x="312.5268376068376" y="243.43282051282048" width="6.363076923076922" height="9.544615384615383" fill="#8F8F8F" shape-rendering="crispEdges"/><rect x="322.16786324786324" y="243.43282051282048" width="6.363076923076922" height="9.544615384615383" fill="#8F8F8F" shape-rendering="crispEdges"/><rect x="42.578119658119654" y="253.07384615384615" width="6.363076923076922" height="9.544615384615383" fill="#8F8F8F" shape-rendering="crispEdges"/><rect x="61.86017094017094" y="253.07384615384615" width="6.363076923076922" height="9.544615384615383" fill="#8F8F8F" shape-rendering="crispEdges"/><rect x="81.14222222222222" y="253.07384615384615" width="6.363076923076922" height="9.544615384615383" fill="#8F8F8F" shape-rendering="crispEdges"/><rect x="90.78324786324785" y="253.07384615384615" width="6.363076923076922" height="9.544615384615383" fill="#8F8F8F" shape-rendering="crispEdges"/><rect x="100.42427350427349" y="253.07384615384615" width="6.363076923076922" height="9.544615384615383" fill="#8F8F8F" shape-rendering="crispEdges"/><rect x="110.06529914529914" y="253.07384615384615" width="6.363076923076922" height="9.544615384615383" fill="#8F8F8F" shape-rendering="crispEdges"/><rect x="119.70632478632477" y="253.07384615384615" width="6.363076923076922" height="9.544615384615383" fill="#8F8F8F" shape-rendering="crispEdges"/><rect x="129.34735042735042" y="253.07384615384615" width="6.363076923076922" height="9.544615384615383" fill="#8F8F8F" shape-rendering="crispEdges"/><rect x="148.62940170940172" y="253.07384615384615" width="6.363076923076922" height="9.544615384615383" fill="#8F8F8F" shape-rendering="crispEdges"/><rect x="167.911452991453" y="253.07384615384615" width="6.363076923076922" height="9.544615384615383" fill="#8F8F8F" shape-rendering="crispEdges"/><rect x="235.39863247863246" y="253.07384615384615" width="6.363076923076922" height="9.544615384615383" fill="#8F8F8F" shape-rendering="crispEdges"/><rect x="312.5268376068376" y="253.07384615384615" width="6.363076923076922" height="9.544615384615383" fill="#8F8F8F" shape-rendering="crispEdges"/><rect x="331.8088888888889" y="253.07384615384615" width="6.363076923076922" height="9.544615384615383" fill="#8F8F8F" shape-rendering="crispEdges"/><rect x="341.4499145299145" y="253.07384615384615" width="6.363076923076922" height="9.544615384615383" fill="#8F8F8F" shape-rendering="crispEdges"/><rect x="42.578119658119654" y="262.7148717948718" width="6.363076923076922" height="9.544615384615383" fill="#8F8F8F" shape-rendering="crispEdges"/><rect x="61.86017094017094" y="262.7148717948718" width="6.363076923076922" height="9.544615384615383" fill="#8F8F8F" shape-rendering="crispEdges"/><rect x="90.78324786324785" y="262.7148717948718" width="6.363076923076922" height="9.544615384615383" fill="#8F8F8F" shape-rendering="crispEdges"/><rect x="119.70632478632477" y="262.7148717948718" width="6.363076923076922" height="9.544615384615383" fill="#8F8F8F" shape-rendering="crispEdges"/><rect x="148.62940170940172" y="262.7148717948718" width="6.363076923076922" height="9.544615384615383" fill="#8F8F8F" shape-rendering="crispEdges"/><rect x="158.27042735042735" y="262.7148717948718" width="6.363076923076922" height="9.544615384615383" fill="#8F8F8F" shape-rendering="crispEdges"/><rect x="167.911452991453" y="262.7148717948718" width="6.363076923076922" height="9.544615384615383" fill="#8F8F8F" shape-rendering="crispEdges"/><rect x="206.47555555555556" y="262.7148717948718" width="6.363076923076922" height="9.544615384615383" fill="#8F8F8F" shape-rendering="crispEdges"/><rect x="225.75760683760683" y="262.7148717948718" width="6.363076923076922" height="9.544615384615383" fill="#8F8F8F" shape-rendering="crispEdges"/><rect x="254.68068376068376" y="262.7148717948718" width="6.363076923076922" height="9.544615384615383" fill="#8F8F8F" shape-rendering="crispEdges"/><rect x="264.32170940170937" y="262.7148717948718" width="6.363076923076922" height="9.544615384615383" fill="#8F8F8F" shape-rendering="crispEdges"/><rect x="273.96273504273506" y="262.7148717948718" width="6.363076923076922" height="9.544615384615383" fill="#8F8F8F" shape-rendering="crispEdges"/><rect x="302.88581196581197" y="262.7148717948718" width="6.363076923076922" height="9.544615384615383" fill="#8F8F8F" shape-rendering="crispEdges"/><rect x="312.5268376068376" y="262.7148717948718" width="6.363076923076922" height="9.544615384615383" fill="#8F8F8F" shape-rendering="crispEdges"/><rect x="322.16786324786324" y="262.7148717948718" width="6.363076923076922" height="9.544615384615383" fill="#8F8F8F" shape-rendering="crispEdges"/><rect x="331.8088888888889" y="262.7148717948718" width="6.363076923076922" height="9.544615384615383" fill="#8F8F8F" shape-rendering="crispEdges"/><rect x="351.09094017094014" y="262.7148717948718" width="6.363076923076922" height="9.544615384615383" fill="#8F8F8F" shape-rendering="crispEdges"/><rect x="42.578119658119654" y="272.3558974358975" width="6.363076923076922" height="9.544615384615383" fill="#8F8F8F" shape-rendering="crispEdges"/><rect x="52.219145299145296" y="272.3558974358975" width="6.363076923076922" height="9.544615384615383" fill="#8F8F8F" shape-rendering="crispEdges"/><rect x="71.50119658119657" y="272.3558974358975" width="6.363076923076922" height="9.544615384615383" fill="#8F8F8F" shape-rendering="crispEdges"/><rect x="81.14222222222222" y="272.3558974358975" width="6.363076923076922" height="9.544615384615383" fill="#8F8F8F" shape-rendering="crispEdges"/><rect x="100.42427350427349" y="272.3558974358975" width="6.363076923076922" height="9.544615384615383" fill="#8F8F8F" shape-rendering="crispEdges"/><rect x="110.06529914529914" y="272.3558974358975" width="6.363076923076922" height="9.544615384615383" fill="#8F8F8F" shape-rendering="crispEdges"/><rect x="119.70632478632477" y="272.3558974358975" width="6.363076923076922" height="9.544615384615383" fill="#8F8F8F" shape-rendering="crispEdges"/><rect x="167.911452991453" y="272.3558974358975" width="6.363076923076922" height="9.544615384615383" fill="#8F8F8F" shape-rendering="crispEdges"/><rect x="177.55247863247862" y="272.3558974358975" width="6.363076923076922" height="9.544615384615383" fill="#8F8F8F" shape-rendering="crispEdges"/><rect x="187.19350427350426" y="272.3558974358975" width="6.363076923076922" height="9.544615384615383" fill="#8F8F8F" shape-rendering="crispEdges"/><rect x="196.83452991452992" y="272.3558974358975" width="6.363076923076922" height="9.544615384615383" fill="#8F8F8F" shape-rendering="crispEdges"/><rect x="206.47555555555556" y="272.3558974358975" width="6.363076923076922" height="9.544615384615383" fill="#8F8F8F" shape-rendering="crispEdges"/><rect x="225.75760683760683" y="272.3558974358975" width="6.363076923076922" height="9.544615384615383" fill="#8F8F8F" shape-rendering="crispEdges"/><rect x="235.39863247863246" y="272.3558974358975" width="6.363076923076922" height="9.544615384615383" fill="#8F8F8F" shape-rendering="crispEdges"/><rect x="273.96273504273506" y="272.3558974358975" width="6.363076923076922" height="9.544615384615383" fill="#8F8F8F" shape-rendering="crispEdges"/><rect x="283.6037606837607" y="272.3558974358975" width="6.363076923076922" height="9.544615384615383" fill="#8F8F8F" shape-rendering="crispEdges"/><rect x="293.24478632478633" y="272.3558974358975" width="6.363076923076922" height="9.544615384615383" fill="#8F8F8F" shape-rendering="crispEdges"/><rect x="302.88581196581197" y="272.3558974358975" width="6.363076923076922" height="9.544615384615383" fill="#8F8F8F" shape-rendering="crispEdges"/><rect x="312.5268376068376" y="272.3558974358975" width="6.363076923076922" height="9.544615384615383" fill="#8F8F8F" shape-rendering="crispEdges"/><rect x="322.16786324786324" y="272.3558974358975" width="6.363076923076922" height="9.544615384615383" fill="#8F8F8F" shape-rendering="crispEdges"/><rect x="119.70632478632477" y="281.9969230769231" width="6.363076923076922" height="9.544615384615383" fill="#8F8F8F" shape-rendering="crispEdges"/><rect x="129.34735042735042" y="281.9969230769231" width="6.363076923076922" height="9.544615384615383" fill="#8F8F8F" shape-rendering="crispEdges"/><rect x="138.98837606837606" y="281.9969230769231" width="6.363076923076922" height="9.544615384615383" fill="#8F8F8F" shape-rendering="crispEdges"/><rect x="167.911452991453" y="281.9969230769231" width="6.363076923076922" height="9.544615384615383" fill="#8F8F8F" shape-rendering="crispEdges"/><rect x="187.19350427350426" y="281.9969230769231" width="6.363076923076922" height="9.544615384615383" fill="#8F8F8F" shape-rendering="crispEdges"/><rect x="196.83452991452992" y="281.9969230769231" width="6.363076923076922" height="9.544615384615383" fill="#8F8F8F" shape-rendering="crispEdges"/><rect x="206.47555555555556" y="281.9969230769231" width="6.363076923076922" height="9.544615384615383" fill="#8F8F8F" shape-rendering="crispEdges"/><rect x="225.75760683760683" y="281.9969230769231" width="6.363076923076922" height="9.544615384615383" fill="#8F8F8F" shape-rendering="crispEdges"/><rect x="235.39863247863246" y="281.9969230769231" width="6.363076923076922" height="9.544615384615383" fill="#8F8F8F" shape-rendering="crispEdges"/><rect x="273.96273504273506" y="281.9969230769231" width="6.363076923076922" height="9.544615384615383" fill="#8F8F8F" shape-rendering="crispEdges"/><rect x="312.5268376068376" y="281.9969230769231" width="6.363076923076922" height="9.544615384615383" fill="#8F8F8F" shape-rendering="crispEdges"/><rect x="322.16786324786324" y="281.9969230769231" width="6.363076923076922" height="9.544615384615383" fill="#8F8F8F" shape-rendering="crispEdges"/><rect x="351.09094017094014" y="281.9969230769231" width="6.363076923076922" height="9.544615384615383" fill="#8F8F8F" shape-rendering="crispEdges"/><rect x="129.34735042735042" y="291.63794871794875" width="6.363076923076922" height="9.544615384615383" fill="#8F8F8F" shape-rendering="crispEdges"/><rect x="148.62940170940172" y="291.63794871794875" width="6.363076923076922" height="9.544615384615383" fill="#8F8F8F" shape-rendering="crispEdges"/><rect x="158.27042735042735" y="291.63794871794875" width="6.363076923076922" height="9.544615384615383" fill="#8F8F8F" shape-rendering="crispEdges"/><rect x="206.47555555555556" y="291.63794871794875" width="6.363076923076922" height="9.544615384615383" fill="#8F8F8F" shape-rendering="crispEdges"/><rect x="225.75760683760683" y="291.63794871794875" width="6.363076923076922" height="9.544615384615383" fill="#8F8F8F" shape-rendering="crispEdges"/><rect x="245.0396581196581" y="291.63794871794875" width="6.363076923076922" height="9.544615384615383" fill="#8F8F8F" shape-rendering="crispEdges"/><rect x="264.32170940170937" y="291.63794871794875" width="6.363076923076922" height="9.544615384615383" fill="#8F8F8F" shape-rendering="crispEdges"/><rect x="273.96273504273506" y="291.63794871794875" width="6.363076923076922" height="9.544615384615383" fill="#8F8F8F" shape-rendering="crispEdges"/><rect x="293.24478632478633" y="291.63794871794875" width="6.363076923076922" height="9.544615384615383" fill="#8F8F8F" shape-rendering="crispEdges"/><rect x="312.5268376068376" y="291.63794871794875" width="6.363076923076922" height="9.544615384615383" fill="#8F8F8F" shape-rendering="crispEdges"/><rect x="322.16786324786324" y="291.63794871794875" width="6.363076923076922" height="9.544615384615383" fill="#8F8F8F" shape-rendering="crispEdges"/><rect x="341.4499145299145" y="291.63794871794875" width="6.363076923076922" height="9.544615384615383" fill="#8F8F8F" shape-rendering="crispEdges"/><rect x="119.70632478632477" y="301.2789743589744" width="6.363076923076922" height="9.544615384615383" fill="#8F8F8F" shape-rendering="crispEdges"/><rect x="138.98837606837606" y="301.2789743589744" width="6.363076923076922" height="9.544615384615383" fill="#8F8F8F" shape-rendering="crispEdges"/><rect x="158.27042735042735" y="301.2789743589744" width="6.363076923076922" height="9.544615384615383" fill="#8F8F8F" shape-rendering="crispEdges"/><rect x="177.55247863247862" y="301.2789743589744" width="6.363076923076922" height="9.544615384615383" fill="#8F8F8F" shape-rendering="crispEdges"/><rect x="187.19350427350426" y="301.2789743589744" width="6.363076923076922" height="9.544615384615383" fill="#8F8F8F" shape-rendering="crispEdges"/><rect x="206.47555555555556" y="301.2789743589744" width="6.363076923076922" height="9.544615384615383" fill="#8F8F8F" shape-rendering="crispEdges"/><rect x="216.1165811965812" y="301.2789743589744" width="6.363076923076922" height="9.544615384615383" fill="#8F8F8F" shape-rendering="crispEdges"/><rect x="235.39863247863246" y="301.2789743589744" width="6.363076923076922" height="9.544615384615383" fill="#8F8F8F" shape-rendering="crispEdges"/><rect x="273.96273504273506" y="301.2789743589744" width="6.363076923076922" height="9.544615384615383" fill="#8F8F8F" shape-rendering="crispEdges"/><rect x="312.5268376068376" y="301.2789743589744" width="6.363076923076922" height="9.544615384615383" fill="#8F8F8F" shape-rendering="crispEdges"/><rect x="322.16786324786324" y="301.2789743589744" width="6.363076923076922" height="9.544615384615383" fill="#8F8F8F" shape-rendering="crispEdges"/><rect x="331.8088888888889" y="301.2789743589744" width="6.363076923076922" height="9.544615384615383" fill="#8F8F8F" shape-rendering="crispEdges"/><rect x="341.4499145299145" y="301.2789743589744" width="6.363076923076922" height="9.544615384615383" fill="#8F8F8F" shape-rendering="crispEdges"/><rect x="129.34735042735042" y="310.92" width="6.363076923076922" height="9.544615384615383" fill="#8F8F8F" shape-rendering="crispEdges"/><rect x="138.98837606837606" y="310.92" width="6.363076923076922" height="9.544615384615383" fill="#8F8F8F" shape-rendering="crispEdges"/><rect x="148.62940170940172" y="310.92" width="6.363076923076922" height="9.544615384615383" fill="#8F8F8F" shape-rendering="crispEdges"/><rect x="177.55247863247862" y="310.92" width="6.363076923076922" height="9.544615384615383" fill="#8F8F8F" shape-rendering="crispEdges"/><rect x="196.83452991452992" y="310.92" width="6.363076923076922" height="9.544615384615383" fill="#8F8F8F" shape-rendering="crispEdges"/><rect x="245.0396581196581" y="310.92" width="6.363076923076922" height="9.544615384615383" fill="#8F8F8F" shape-rendering="crispEdges"/><rect x="273.96273504273506" y="310.92" width="6.363076923076922" height="9.544615384615383" fill="#8F8F8F" shape-rendering="crispEdges"/><rect x="283.6037606837607" y="310.92" width="6.363076923076922" height="9.544615384615383" fill="#8F8F8F" shape-rendering="crispEdges"/><rect x="293.24478632478633" y="310.92" width="6.363076923076922" height="9.544615384615383" fill="#8F8F8F" shape-rendering="crispEdges"/><rect x="302.88581196581197" y="310.92" width="6.363076923076922" height="9.544615384615383" fill="#8F8F8F" shape-rendering="crispEdges"/><rect x="312.5268376068376" y="310.92" width="6.363076923076922" height="9.544615384615383" fill="#8F8F8F" shape-rendering="crispEdges"/><rect x="341.4499145299145" y="310.92" width="6.363076923076922" height="9.544615384615383" fill="#8F8F8F" shape-rendering="crispEdges"/><rect x="351.09094017094014" y="310.92" width="6.363076923076922" height="9.544615384615383" fill="#8F8F8F" shape-rendering="crispEdges"/><rect x="129.34735042735042" y="320.56102564102565" width="6.363076923076922" height="9.544615384615383" fill="#8F8F8F" shape-rendering="crispEdges"/><rect x="148.62940170940172" y="320.56102564102565" width="6.363076923076922" height="9.544615384615383" fill="#8F8F8F" shape-rendering="crispEdges"/><rect x="158.27042735042735" y="320.56102564102565" width="6.363076923076922" height="9.544615384615383" fill="#8F8F8F" shape-rendering="crispEdges"/><rect x="177.55247863247862" y="320.56102564102565" width="6.363076923076922" height="9.544615384615383" fill="#8F8F8F" shape-rendering="crispEdges"/><rect x="187.19350427350426" y="320.56102564102565" width="6.363076923076922" height="9.544615384615383" fill="#8F8F8F" shape-rendering="crispEdges"/><rect x="196.83452991452992" y="320.56102564102565" width="6.363076923076922" height="9.544615384615383" fill="#8F8F8F" shape-rendering="crispEdges"/><rect x="206.47555555555556" y="320.56102564102565" width="6.363076923076922" height="9.544615384615383" fill="#8F8F8F" shape-rendering="crispEdges"/><rect x="216.1165811965812" y="320.56102564102565" width="6.363076923076922" height="9.544615384615383" fill="#8F8F8F" shape-rendering="crispEdges"/><rect x="235.39863247863246" y="320.56102564102565" width="6.363076923076922" height="9.544615384615383" fill="#8F8F8F" shape-rendering="crispEdges"/><rect x="254.68068376068376" y="320.56102564102565" width="6.363076923076922" height="9.544615384615383" fill="#8F8F8F" shape-rendering="crispEdges"/><rect x="273.96273504273506" y="320.56102564102565" width="6.363076923076922" height="9.544615384615383" fill="#8F8F8F" shape-rendering="crispEdges"/><rect x="283.6037606837607" y="320.56102564102565" width="6.363076923076922" height="9.544615384615383" fill="#8F8F8F" shape-rendering="crispEdges"/><rect x="302.88581196581197" y="320.56102564102565" width="6.363076923076922" height="9.544615384615383" fill="#8F8F8F" shape-rendering="crispEdges"/><rect x="312.5268376068376" y="320.56102564102565" width="6.363076923076922" height="9.544615384615383" fill="#8F8F8F" shape-rendering="crispEdges"/><rect x="331.8088888888889" y="320.56102564102565" width="6.363076923076922" height="9.544615384615383" fill="#8F8F8F" shape-rendering="crispEdges"/><rect x="351.09094017094014" y="320.56102564102565" width="6.363076923076922" height="9.544615384615383" fill="#8F8F8F" shape-rendering="crispEdges"/><rect x="129.34735042735042" y="330.2020512820513" width="6.363076923076922" height="9.544615384615383" fill="#8F8F8F" shape-rendering="crispEdges"/><rect x="148.62940170940172" y="330.2020512820513" width="6.363076923076922" height="9.544615384615383" fill="#8F8F8F" shape-rendering="crispEdges"/><rect x="187.19350427350426" y="330.2020512820513" width="6.363076923076922" height="9.544615384615383" fill="#8F8F8F" shape-rendering="crispEdges"/><rect x="206.47555555555556" y="330.2020512820513" width="6.363076923076922" height="9.544615384615383" fill="#8F8F8F" shape-rendering="crispEdges"/><rect x="225.75760683760683" y="330.2020512820513" width="6.363076923076922" height="9.544615384615383" fill="#8F8F8F" shape-rendering="crispEdges"/><rect x="245.0396581196581" y="330.2020512820513" width="6.363076923076922" height="9.544615384615383" fill="#8F8F8F" shape-rendering="crispEdges"/><rect x="264.32170940170937" y="330.2020512820513" width="6.363076923076922" height="9.544615384615383" fill="#8F8F8F" shape-rendering="crispEdges"/><rect x="273.96273504273506" y="330.2020512820513" width="6.363076923076922" height="9.544615384615383" fill="#8F8F8F" shape-rendering="crispEdges"/><rect x="312.5268376068376" y="330.2020512820513" width="6.363076923076922" height="9.544615384615383" fill="#8F8F8F" shape-rendering="crispEdges"/><rect x="331.8088888888889" y="330.2020512820513" width="6.363076923076922" height="9.544615384615383" fill="#8F8F8F" shape-rendering="crispEdges"/><rect x="341.4499145299145" y="330.2020512820513" width="6.363076923076922" height="9.544615384615383" fill="#8F8F8F" shape-rendering="crispEdges"/><rect x="351.09094017094014" y="330.2020512820513" width="6.363076923076922" height="9.544615384615383" fill="#8F8F8F" shape-rendering="crispEdges"/><rect x="129.34735042735042" y="339.8430769230769" width="6.363076923076922" height="9.544615384615383" fill="#8F8F8F" shape-rendering="crispEdges"/><rect x="148.62940170940172" y="339.8430769230769" width="6.363076923076922" height="9.544615384615383" fill="#8F8F8F" shape-rendering="crispEdges"/><rect x="158.27042735042735" y="339.8430769230769" width="6.363076923076922" height="9.544615384615383" fill="#8F8F8F" shape-rendering="crispEdges"/><rect x="206.47555555555556" y="339.8430769230769" width="6.363076923076922" height="9.544615384615383" fill="#8F8F8F" shape-rendering="crispEdges"/><rect x="225.75760683760683" y="339.8430769230769" width="6.363076923076922" height="9.544615384615383" fill="#8F8F8F" shape-rendering="crispEdges"/><rect x="235.39863247863246" y="339.8430769230769" width="6.363076923076922" height="9.544615384615383" fill="#8F8F8F" shape-rendering="crispEdges"/><rect x="254.68068376068376" y="339.8430769230769" width="6.363076923076922" height="9.544615384615383" fill="#8F8F8F" shape-rendering="crispEdges"/><rect x="322.16786324786324" y="339.8430769230769" width="6.363076923076922" height="9.544615384615383" fill="#8F8F8F" shape-rendering="crispEdges"/><rect x="331.8088888888889" y="339.8430769230769" width="6.363076923076922" height="9.544615384615383" fill="#8F8F8F" shape-rendering="crispEdges"/><rect x="129.34735042735042" y="349.48410256410256" width="6.363076923076922" height="9.544615384615383" fill="#8F8F8F" shape-rendering="crispEdges"/><rect x="138.98837606837606" y="349.48410256410256" width="6.363076923076922" height="9.544615384615383" fill="#8F8F8F" shape-rendering="crispEdges"/><rect x="148.62940170940172" y="349.48410256410256" width="6.363076923076922" height="9.544615384615383" fill="#8F8F8F" shape-rendering="crispEdges"/><rect x="167.911452991453" y="349.48410256410256" width="6.363076923076922" height="9.544615384615383" fill="#8F8F8F" shape-rendering="crispEdges"/><rect x="196.83452991452992" y="349.48410256410256" width="6.363076923076922" height="9.544615384615383" fill="#8F8F8F" shape-rendering="crispEdges"/><rect x="206.47555555555556" y="349.48410256410256" width="6.363076923076922" height="9.544615384615383" fill="#8F8F8F" shape-rendering="crispEdges"/><rect x="245.0396581196581" y="349.48410256410256" width="6.363076923076922" height="9.544615384615383" fill="#8F8F8F" shape-rendering="crispEdges"/><rect x="264.32170940170937" y="349.48410256410256" width="6.363076923076922" height="9.544615384615383" fill="#8F8F8F" shape-rendering="crispEdges"/><rect x="273.96273504273506" y="349.48410256410256" width="6.363076923076922" height="9.544615384615383" fill="#8F8F8F" shape-rendering="crispEdges"/><rect x="283.6037606837607" y="349.48410256410256" width="6.363076923076922" height="9.544615384615383" fill="#8F8F8F" shape-rendering="crispEdges"/><rect x="293.24478632478633" y="349.48410256410256" width="6.363076923076922" height="9.544615384615383" fill="#8F8F8F" shape-rendering="crispEdges"/><rect x="331.8088888888889" y="349.48410256410256" width="6.363076923076922" height="9.544615384615383" fill="#8F8F8F" shape-rendering="crispEdges"/><rect x="341.4499145299145" y="349.48410256410256" width="6.363076923076922" height="9.544615384615383" fill="#8F8F8F" shape-rendering="crispEdges"/><svg xmlns="http://www.w3.org/2000/svg" xmlns:xlink="http://www.w3.org/1999/xlink" version="1.1" x="40.92307692307692" y="291.5897435897436" width="67.48717948717949" height="67.48717948717949"><rect width="100%" height="100%" fill="#ffffff" fill-opacity="0" shape-rendering="crispEdges"/><defs><clipPath id="eyeClipoj5"><rect x="0" y="0" width='67.48717948717949' height='55.43589743589744'/></clipPath></defs><rect clip-path="url(#eyeClipoj5)" x="5.061538461538462" y="5.061538461538462" width='57.364102564102566' height='57.364102564102566' shape-rendering='crispEdges' fill="#ffffff" fill-opacity="0" stroke="#8F8F8F" stroke-width='10.123076923076924'/><svg x="0" y="59.215227114933505" width="67.48717948717949" height="8.271952372245984" viewBox="3.1875 15.74431818181818 414.51022727272715 50.80681818181818"><path  fill="#8F8F8F" stroke="#8F8F8F" d="M16.61 65.88L3.19 65.88L3.19 16.42L37.96 16.42L37.96 27.24L16.61 27.24L16.61 35.74L35.84 35.74L35.84 46.56L16.61 46.56L16.61 65.88ZM79.71 65.88L46.29 65.88L46.29 16.42L59.71 16.42L59.71 55.06L79.71 55.06L79.71 65.88ZM134.49 41.15L134.49 41.15Q134.49 49.41 131.28 55.07Q128.07 60.73 122.61 63.64Q117.16 66.55 110.44 66.55L110.44 66.55Q103.68 66.55 98.24 63.62Q92.79 60.68 89.59 55.02Q86.39 49.36 86.39 41.15L86.39 41.15Q86.39 32.89 89.59 27.23Q92.79 21.56 98.24 18.65Q103.68 15.74 110.44 15.74L110.44 15.74Q117.16 15.74 122.61 18.65Q128.07 21.56 131.28 27.23Q134.49 32.89 134.49 41.15ZM120.68 41.15L120.68 41.15Q120.68 36.70 119.51 33.65Q118.34 30.60 116.06 29.01Q113.77 27.43 110.44 27.43L110.44 27.43Q107.11 27.43 104.83 29.01Q102.55 30.60 101.37 33.65Q100.20 36.70 100.20 41.15L100.20 41.15Q100.20 45.59 101.37 48.65Q102.55 51.70 104.83 53.28Q107.11 54.86 110.44 54.86L110.44 54.86Q113.77 54.86 116.06 53.28Q118.34 51.70 119.51 48.65Q120.68 45.59 120.68 41.15ZM166.39 65.88L153.54 65.88L138.96 16.42L153.93 16.42L160.69 46.85L161.07 46.85L169.09 16.42L180.88 16.42L188.89 46.94L189.28 46.94L196.04 16.42L211.01 16.42L196.43 65.88L183.58 65.88L175.18 38.25L174.79 38.25L166.39 65.88ZM261.84 34.97L261.84 34.97L248.22 34.97Q248.07 33.28 247.46 31.90Q246.84 30.52 245.77 29.52Q244.69 28.52 243.17 27.98Q241.65 27.43 239.72 27.43L239.72 27.43Q236.34 27.43 234.01 29.07Q231.68 30.72 230.48 33.78Q229.29 36.85 229.29 41.15L229.29 41.15Q229.29 45.69 230.51 48.74Q231.73 51.80 234.04 53.33Q236.36 54.86 239.62 54.86L239.62 54.86Q241.48 54.86 242.96 54.39Q244.43 53.92 245.51 53.03Q246.60 52.13 247.29 50.87Q247.98 49.60 248.22 48.01L248.22 48.01L261.84 48.10Q261.60 51.24 260.08 54.49Q258.55 57.74 255.77 60.48Q252.98 63.22 248.87 64.88Q244.77 66.55 239.33 66.55L239.33 66.55Q232.52 66.55 227.13 63.63Q221.73 60.71 218.60 55.03Q215.47 49.36 215.47 41.15L215.47 41.15Q215.47 32.89 218.66 27.23Q221.85 21.56 227.26 18.65Q232.67 15.74 239.33 15.74L239.33 15.74Q244.02 15.74 247.95 17.02Q251.89 18.30 254.86 20.75Q257.83 23.21 259.64 26.78Q261.45 30.35 261.84 34.97ZM319.23 41.15L319.23 41.15Q319.23 49.41 316.02 55.07Q312.81 60.73 307.35 63.64Q301.89 66.55 295.18 66.55L295.18 66.55Q288.42 66.55 282.98 63.62Q277.53 60.68 274.33 55.02Q271.13 49.36 271.13 41.15L271.13 41.15Q271.13 32.89 274.33 27.23Q277.53 21.56 282.98 18.65Q288.42 15.74 295.18 15.74L295.18 15.74Q301.89 15.74 307.35 18.65Q312.81 21.56 316.02 27.23Q319.23 32.89 319.23 41.15ZM305.42 41.15L305.42 41.15Q305.42 36.70 304.25 33.65Q303.08 30.60 300.80 29.01Q298.51 27.43 295.18 27.43L295.18 27.43Q291.85 27.43 289.57 29.01Q287.29 30.60 286.11 33.65Q284.94 36.70 284.94 41.15L284.94 41.15Q284.94 45.59 286.11 48.65Q287.29 51.70 289.57 53.28Q291.85 54.86 295.18 54.86L295.18 54.86Q298.51 54.86 300.80 53.28Q303.08 51.70 304.25 48.65Q305.42 45.59 305.42 41.15ZM347.84 65.88L347.84 65.88L328.81 65.88L328.81 16.42L347.65 16.42Q355.28 16.42 360.85 19.38Q366.41 22.34 369.44 27.88Q372.47 33.42 372.47 41.15L372.47 41.15Q372.47 48.88 369.46 54.42Q366.44 59.96 360.91 62.92Q355.38 65.88 347.84 65.88ZM342.24 27.82L342.24 54.48L347.36 54.48Q351.03 54.48 353.63 53.29Q356.22 52.11 357.59 49.21Q358.95 46.32 358.95 41.15L358.95 41.15Q358.95 35.98 357.56 33.08Q356.17 30.18 353.51 29.00Q350.84 27.82 346.97 27.82L346.97 27.82L342.24 27.82ZM417.60 65.88L382.06 65.88L382.06 16.42L417.70 16.42L417.70 27.24L395.48 27.24L395.48 35.74L415.86 35.74L415.86 46.56L395.48 46.56L395.48 55.06L417.60 55.06L417.60 65.88Z"/></svg><rect x='18.55897435897436' y='18.55897435897436' width='30.36923076923077' shape-rendering='crispEdges' height='30.36923076923077' fill="#8F8F8F" /></svg><svg xmlns="http://www.w3.org/2000/svg" xmlns:xlink="http://www.w3.org/1999/xlink" version="1.1" x="40.92307692307692" y="40.92307692307692" width="67.48717948717949" height="67.48717948717949"><rect width="100%" height="100%" fill="#ffffff" fill-opacity="0" shape-rendering="crispEdges"/><rect x="5.061538461538462" y="5.061538461538462" width='57.364102564102566' height='57.364102564102566' shape-rendering='crispEdges' fill="#ffffff" fill-opacity="0" stroke="#8F8F8F" stroke-width='10.123076923076924'/><rect x='18.55897435897436' y='18.55897435897436' width='30.36923076923077' shape-rendering='crispEdges' height='30.36923076923077' fill="#8F8F8F" /></svg><svg xmlns="http://www.w3.org/2000/svg" xmlns:xlink="http://www.w3.org/1999/xlink" version="1.1" x="291.5897435897436" y="40.92307692307692" width="67.48717948717949" height="67.48717948717949"><rect width="100%" height="100%" fill="#ffffff" fill-opacity="0" shape-rendering="crispEdges"/><rect x="5.061538461538462" y="5.061538461538462" width='57.364102564102566' height='57.364102564102566' shape-rendering='crispEdges' fill="#ffffff" fill-opacity="0" stroke="#8F8F8F" stroke-width='10.123076923076924'/><rect x='18.55897435897436' y='18.55897435897436' width='30.36923076923077' shape-rendering='crispEdges' height='30.36923076923077' fill="#8F8F8F" /></svg></svg>